<?xml version="1.0" encoding="utf-8"?>
<svg viewBox="0 0 1500 400" xmlns="http://www.w3.org/2000/svg">
  <path stroke="rgb(255,0,0)" stroke-width="0" d="M 74.769 -219.28 C 116.909 -224.566 241.579 -212.447 330.884 -212.311 C 425.755 -212.166 559.489 -219.495 628.814 -219.28 C 672.86 -219.143 699.988 -215.81 724.639 -215.795 C 742.333 -215.785 747.416 -217.478 766.454 -217.538 C 795.992 -217.63 853.587 -214.256 891.898 -214.053 C 926.042 -213.872 945.212 -215.947 985.981 -215.795 C 1044.801 -215.577 1145.91 -210.472 1221.189 -210.568 C 1292.524 -210.66 1383.363 -217.122 1426.778 -215.795 C 1451.422 -215.042 1465.287 -217.135 1476.433 -210.568 C 1485.636 -205.146 1486.073 -190.09 1492.984 -184.434 C 1499.138 -179.398 1511.104 -180.89 1514.763 -176.594 C 1517.758 -173.076 1517.397 -166.298 1516.505 -162.656 C 1515.768 -159.647 1510.573 -158.076 1511.278 -155.687 C 1512.267 -152.333 1526.693 -150.205 1528.701 -145.233 C 1530.691 -140.306 1523.705 -132.295 1523.474 -126.068 C 1523.253 -120.113 1527.754 -113.37 1526.959 -108.645 C 1526.294 -104.694 1522.876 -101.102 1520.861 -99.063 C 1519.4 -97.585 1517.368 -99.334 1516.505 -96.449 C 1513.852 -87.585 1526.654 -27.956 1525.216 -12.82 C 1524.513 -5.415 1524.551 -3.677 1519.99 0.247 C 1512.593 6.609 1489.012 13.157 1475.561 15.928 C 1464.125 18.284 1452.053 19.026 1444.2 17.67 C 1438.449 16.677 1433.95 15.529 1431.133 11.572 C 1427.743 6.81 1427.15 -5.528 1427.649 -11.078 C 1427.998 -14.96 1431.242 -15.153 1431.133 -19.789 C 1430.924 -28.732 1422.716 -57.745 1416.324 -65.959 C 1412.265 -71.176 1408.384 -73.81 1402.386 -72.928 C 1393.123 -71.568 1373.249 -53.801 1364.927 -45.923 C 1359.137 -40.443 1359.939 -37.265 1353.602 -31.114 C 1343.026 -20.848 1311.918 -7.293 1300.462 9.83 C 1289.415 26.344 1292.313 51.944 1284.782 69.067 C 1277.961 84.576 1263.079 95.877 1258.648 109.14 C 1254.742 120.829 1255.955 131.624 1256.905 143.985 C 1257.952 157.6 1267.251 178.77 1265.617 187.542 C 1264.637 192.805 1264.323 194.774 1257.777 197.125 C 1241.339 203.027 1145.957 198.755 1134.075 198.867 C 1131.225 198.894 1133.157 199.326 1130.59 198.867 C 1121.382 197.221 1063.348 177.743 1048.703 176.217 C 1041.939 175.513 1044.069 178.253 1036.507 177.96 C 1017.285 177.215 939.372 168.254 911.063 158.795 C 892.444 152.573 887.784 140.625 872.733 136.145 C 855.849 131.12 830.835 137.807 813.496 132.66 C 797.512 127.916 786.505 114.077 771.681 108.269 C 756.883 102.47 737.665 104.043 724.639 97.815 C 712.902 92.203 700.202 78.949 695.892 74.294 C 693.947 72.194 695.436 72.017 693.278 69.938 C 688.051 64.904 670.503 49.873 654.948 43.804 C 637.113 36.846 607.909 32.747 590.484 33.351 C 577.026 33.816 567.792 36.642 557.381 42.062 C 546.209 47.877 538.017 61.829 526.02 68.196 C 513.707 74.731 502.201 73.067 484.205 80.392 C 456.935 91.492 405.175 125.969 374.441 136.145 C 351.407 143.772 334.728 139.741 315.204 144.856 C 295.226 150.091 273.189 164.145 255.966 167.506 C 242.145 170.203 231.522 169.58 219.379 167.506 C 206.836 165.363 189.706 160.53 181.92 154.439 C 176.104 149.89 178.759 141.809 172.337 137.887 C 162.959 132.161 139.912 136.445 123.553 130.918 C 105.667 124.875 82.312 104.421 69.543 101.299 C 61.822 99.412 57.545 103.095 52.12 103.042 C 47.153 102.993 45.45 100.861 38.182 101.299 C 24.147 102.146 -23.391 115.22 -33.252 115.238 C -36.764 115.244 -36.439 113.596 -38.479 113.495 C -40.947 113.373 -43.484 115.758 -47.19 115.238 C -52.686 114.466 -63.591 110.768 -68.969 105.655 C -74.308 100.578 -79.331 90.5 -79.422 84.748 C -79.494 80.218 -76.127 75.89 -73.324 73.423 C -70.77 71.175 -66.71 72.143 -63.742 69.938 C -60.231 67.332 -56.384 59.485 -54.159 57.742 C -53.045 56.869 -51.906 57.931 -51.546 56.871 C -50.797 54.671 -51.887 42.593 -55.901 40.32 C -60.569 37.677 -73.427 46.398 -80.293 45.547 C -86.149 44.82 -92.399 41.548 -95.103 37.706 C -97.622 34.127 -97.971 27.755 -96.845 23.768 C -95.774 19.978 -95.544 18.135 -89.005 14.186 C -71.511 3.62 43.455 -29.725 47.764 -33.727 C 48.746 -34.639 45.258 -33.416 44.28 -34.598 C 42.537 -36.704 40.792 -45.675 40.795 -49.408 C 40.797 -52.038 43.983 -53.503 42.537 -55.506 C 39.729 -59.395 16.077 -61.174 11.176 -66.83 C 7.544 -71.023 6.257 -77.098 9.434 -82.511 C 14.599 -91.312 48.238 -104.021 54.733 -110.387 C 57.746 -113.34 59.525 -115.857 58.218 -117.357 C 56.125 -119.758 39.816 -115.567 32.955 -118.228 C 26.738 -120.638 20.643 -127.463 18.145 -131.295 C 16.479 -133.851 15.828 -135.479 16.403 -138.264 C 17.226 -142.253 20.285 -148.735 25.986 -153.073 C 34.044 -159.205 61.992 -161.772 65.187 -167.883 C 67.338 -171.996 59.393 -178.575 58.218 -181.821 C 57.507 -183.786 58.497 -184.773 57.347 -186.177 C 55.586 -188.323 48.243 -188.907 46.022 -192.275 C 43.612 -195.929 41.354 -203.756 44.28 -207.955 C 48.187 -213.563 56.313 -216.965 74.769 -219.28 Z" style="stroke: rgb(129, 151, 57); stroke-width: 2px; fill: rgb(214, 184, 223);"/>
  <path stroke="rgb(255,0,0)" stroke-width="0" d="M 595.711 14.882 C 601.879 14.65 611.041 13.704 617.489 20.98 C 628.616 33.535 636.861 94.919 643.623 105.481 C 646.238 109.564 648.196 106.357 650.593 109.837 C 655.511 116.977 667.856 146.249 666.273 156.878 C 665.178 164.233 660.784 167.663 653.206 171.687 C 641.349 177.985 612.176 183.666 593.968 183.883 C 577.63 184.078 567.079 175.655 548.669 175.172 C 524.674 174.543 478.9 186.229 459.813 185.626 C 448.68 185.274 443.881 180.144 437.163 180.399 C 431.303 180.621 424.688 185.663 421.483 185.626 C 419.685 185.605 420.443 184.147 417.998 183.883 C 411.169 183.148 378.14 189.133 367.472 189.11 C 361.419 189.098 360.101 186.918 355.276 187.368 C 349.008 187.952 343.726 192.493 332.627 194.337 C 314.08 197.418 258.948 201.403 247.255 199.564 C 242.953 198.887 242.688 198.364 241.157 196.079 C 238.982 192.832 236.511 184.255 237.673 179.528 C 238.775 175.042 241.379 172.481 247.255 168.203 C 257.794 160.53 285.547 145.46 304.75 140.326 C 322.72 135.523 345.031 140.029 358.761 136.842 C 368.959 134.475 378.51 129.121 382.282 126.388 C 384.135 125.045 382.396 124.772 384.895 122.904 C 393.388 116.553 443.724 88.654 466.782 79.347 C 484.338 72.26 495.554 74.191 512.081 67.151 C 532.304 58.537 570.627 36.238 579.159 27.95 C 582.693 24.516 580.395 22.189 582.644 20.109 C 585.384 17.574 590.608 15.075 595.711 14.882 Z" style="stroke: rgb(129, 151, 57); stroke-width: 2px; fill: rgb(164, 190, 217);"/>
  <path stroke="rgb(255,0,0)" stroke-width="0" d="M 606.861 9.307 C 610.509 8.788 620.163 8.693 626.026 11.049 C 632.108 13.494 638.731 19.626 642.578 24.116 C 645.735 27.801 644.045 31.707 648.676 35.441 C 656.75 41.952 690.41 49.786 696.589 54.606 C 699.174 56.623 697.871 58.294 699.202 59.833 C 700.673 61.533 703.514 62.138 705.3 64.189 C 707.376 66.573 707.248 70.51 710.527 73.771 C 715.343 78.562 731.06 85.7 734.919 88.581 C 736.623 89.853 736.343 89.877 737.532 91.194 C 739.535 93.413 741.166 98.94 746.244 101.648 C 753.977 105.772 771.847 104.474 784.574 108.617 C 797.986 112.984 808.813 123.195 824.646 127.782 C 843.284 133.182 869.178 130.071 890.853 136.493 C 913.346 143.158 930.13 161.467 957.059 167.854 C 989.902 175.645 1047.475 167.568 1077.277 173.081 C 1098.414 176.992 1117.39 183.769 1125.189 190.504 C 1129.85 194.529 1130.899 199.142 1130.416 203.571 C 1129.888 208.419 1124.831 215.73 1120.834 218.381 C 1117.371 220.677 1115.121 220.606 1108.638 220.123 C 1095.667 219.155 1050.242 204.656 1040.689 204.442 C 1037.227 204.365 1037.015 205.921 1035.462 206.185 C 1034.169 206.404 1035.055 206.308 1031.977 206.185 C 1017.077 205.588 887.072 196.149 852.523 195.731 C 834.954 195.519 834.037 197.755 819.419 197.473 C 797.707 197.054 741.879 189.747 730.563 190.504 C 726.847 190.753 728.472 192.073 725.336 192.246 C 718.145 192.645 691.873 190.851 681.779 187.02 C 674.611 184.298 670.6 179.237 666.97 175.695 C 664.148 172.941 663.195 170.178 660.872 167.854 C 658.549 165.531 655.456 165.547 653.032 161.757 C 649.033 155.504 642.886 134.686 642.578 128.653 C 642.43 125.764 644.916 126.648 644.32 123.426 C 642.715 114.736 619.492 71.984 613.831 65.06 C 611.799 62.575 611.087 64.769 609.475 62.447 C 605.706 57.018 594.843 31.19 595.537 22.374 C 595.979 16.753 601.193 13.07 603.377 11.049 C 604.695 9.83 604.936 9.581 606.861 9.307 Z" style="stroke: rgb(129, 151, 57); stroke-width: 2px; fill: rgb(110, 138, 169);"/>
  <path stroke="rgb(255,0,0)" stroke-width="0" d="M 661.569 158.098 C 674.524 157.829 686.155 164.968 703.384 166.809 C 726.113 169.239 761.392 164.627 788.755 168.551 C 815.342 172.364 845.669 186.094 865.416 189.459 C 879.335 191.83 884.308 191.531 898.519 191.201 C 918.778 190.73 943.747 184.628 978.664 184.232 C 1029.337 183.657 1133.314 194.347 1182.51 194.686 C 1215.163 194.91 1241.876 188.412 1255.686 191.201 C 1263.055 192.689 1266.221 194.9 1268.753 199.041 C 1271.532 203.588 1271.741 213.506 1270.495 218.206 C 1269.539 221.814 1268.572 223.908 1264.397 226.047 C 1258.458 229.089 1239.916 228.139 1228.056 230.267 C 1229.561 234.518 1230.02 239.359 1228.332 242.598 C 1226.005 247.065 1217.168 252.346 1211.78 252.181 C 1211.146 252.161 1210.572 252.036 1210.037 251.827 C 1206.145 253.902 1200.827 254.435 1196.448 253.923 C 1190.936 253.279 1182.873 248.578 1179.897 246.083 C 1178.115 244.589 1178.822 243.3 1177.283 241.727 C 1176.281 240.702 1174.499 239.625 1172.588 238.496 C 1147.847 236.664 1113.528 236.679 1095.048 236.5 C 1076.558 236.321 1057.705 238.088 1051.491 238.243 C 1049.229 238.299 1050.328 238.19 1048.006 238.243 C 1041.332 238.392 1019.127 234.646 999.222 239.985 C 970.698 247.636 915.752 284.566 891.201 292.253 C 876.813 296.758 864.871 296.322 859.84 295.738 C 857.661 295.485 857.517 293.995 856.356 293.995 C 855.194 293.995 854.033 295.738 852.871 295.738 C 851.71 295.738 850.548 293.995 849.387 293.995 C 848.225 293.995 847.229 295.663 845.902 295.738 C 844.378 295.824 843.649 294.478 840.675 293.995 C 834.452 292.985 813.741 291.899 805.83 292.253 C 800.917 292.473 800.51 294.113 795.376 293.995 C 786.437 293.79 759.618 287.651 753.561 287.026 C 751.332 286.796 752.428 287.224 750.077 287.026 C 743.107 286.44 717.057 280.111 697.808 280.057 C 675.803 279.995 649.865 290.693 624.633 288.769 C 597.713 286.715 564.994 270.686 541.003 266.119 C 521.626 262.431 508.27 265.637 490.477 260.892 C 470.222 255.491 444.014 237.453 426.013 233.016 C 412.406 229.661 397.39 230.639 391.167 231.273 C 388.193 231.577 387.493 232.752 385.94 233.016 C 384.648 233.235 384.986 233.056 382.456 233.016 C 373.985 232.882 326.792 234.105 311.022 231.273 C 301.265 229.522 294.741 227.146 290.986 223.433 C 288.113 220.592 287.047 216.624 287.502 212.979 C 287.596 212.228 287.737 211.417 287.937 210.575 C 286.791 211.056 286.2 212.108 285.237 212.108 C 284.075 212.108 283.202 210.492 281.752 210.366 C 279.9 210.205 277.489 212.597 274.783 212.108 C 271.127 211.448 264.193 208.143 261.716 204.268 C 259.204 200.339 258.122 192.787 259.974 188.588 C 261.845 184.343 265.301 181.727 273.041 179.005 C 287.886 173.784 316.477 170.841 354.928 168.551 C 417.019 164.854 583.153 171.631 628.466 166.809 C 648.198 164.709 649.711 158.344 661.569 158.098 Z M 1695.089 329.886 C 1699.341 329.332 1709.753 329.741 1713.382 333.371 C 1717.012 337.001 1717.421 347.413 1716.867 351.665 C 1716.492 354.544 1715.742 356.233 1713.382 357.763 C 1709.898 360.022 1699.341 361.802 1695.089 361.247 C 1692.21 360.872 1690.52 360.122 1688.991 357.763 C 1686.731 354.278 1684.952 343.721 1685.506 339.469 C 1685.881 336.59 1687.393 334.968 1688.991 333.371 C 1690.588 331.774 1692.21 330.262 1695.089 329.886 Z M 1581.492 498.701 C 1585.262 498.813 1598.288 503.033 1601.528 506.541 C 1603.803 509.004 1603.889 512.078 1603.271 515.252 C 1602.503 519.191 1598.957 525.574 1595.43 528.32 C 1592.153 530.871 1587.244 532.572 1583.234 531.804 C 1578.811 530.957 1571.448 526.856 1570.167 522.222 C 1568.69 516.877 1575.558 503.626 1578.008 500.443 C 1579.208 498.882 1579.589 498.644 1581.492 498.701 Z" style="stroke: rgb(129, 151, 57); stroke-width: 2px; fill: rgb(142, 167, 117);"/>
  <path stroke="rgb(255,0,0)" stroke-width="0" d="M 234.362 164.718 C 239.88 166.454 246.972 171.356 254.832 177.678 C 258.229 179.487 261.319 181.468 263.458 183.709 C 264.659 184.968 265.859 186.397 267.012 187.929 C 283.413 202.137 301.219 218.438 314.507 223.956 C 331.957 231.202 348.224 229.579 361.549 229.183 C 372.405 228.86 377.136 223.434 389.425 223.956 C 407.741 224.734 448.92 234.951 464.343 241.379 C 473.565 245.222 472.408 249.875 481.766 253.575 C 494.061 258.435 522.052 261.218 543.535 265.278 C 555.253 265.414 570.093 266.412 578.288 269.255 C 582.383 270.676 585.628 273.122 588.589 275.807 C 592.641 276.354 596.856 277.262 600.938 278.663 C 606.327 280.513 613.442 283.472 619.912 286.902 C 620.319 286.83 620.73 286.755 621.148 286.678 C 632.387 284.593 647.529 274.914 659.478 272.74 C 669.992 270.826 675.261 270.885 689.097 272.74 C 701.558 274.41 722.174 280.455 742.866 286.182 C 755.971 285.838 769.245 285.741 780.044 285.794 C 803.257 285.909 824.371 290.032 844.508 289.279 C 862.963 288.588 879.152 286.555 896.446 282.39 C 919.089 271.632 940.457 245.453 973.088 236.152 C 1015.007 224.203 1108.765 228.789 1133.378 229.183 C 1143.111 229.339 1141.65 230.967 1149.058 230.925 C 1161.201 230.856 1185.992 224.353 1203.069 225.698 C 1219.295 226.976 1242.151 231.541 1249.239 237.894 C 1253.726 241.914 1253.542 248.281 1252.724 252.703 C 1251.938 256.953 1248.491 261.846 1244.884 264.028 C 1241.248 266.227 1237.475 266.086 1230.946 265.771 C 1220.953 265.288 1202.756 258.654 1187.023 257.264 C 1182.131 269.765 1150.402 305.123 1150.975 313.857 C 1151.276 318.443 1159.105 316.953 1161.429 319.955 C 1163.796 323.014 1165.681 328.141 1164.913 332.151 C 1164.066 336.574 1161.306 342.433 1155.331 345.218 C 1146.177 349.485 1117.315 348.213 1108.289 346.961 C 1103.554 346.304 1104.839 344.201 1099.578 343.476 C 1087.727 341.843 1049.076 346.064 1028.144 345.218 C 1010.392 344.502 1002.985 339.538 981.103 339.992 C 945.977 340.721 864.588 356.624 827.782 359.157 C 803.61 360.82 791.346 360.947 773.772 359.157 C 756.516 357.398 737.494 354.924 723.246 348.703 C 717.035 345.991 710.399 342.048 704.669 337.904 C 704.083 338.389 703.7 338.946 703.035 338.946 C 701.874 338.946 700.712 337.204 699.551 337.204 C 698.389 337.204 698.408 338.59 696.066 338.946 C 690.013 339.867 661.254 336.478 654.251 337.204 C 651.139 337.527 650.767 338.946 649.024 338.946 C 647.282 338.946 647.444 337.438 643.798 337.204 C 633.049 336.514 589.495 345.252 561.911 344.173 C 533.755 343.072 487.572 330.083 476.539 330.235 C 472.872 330.286 472.865 331.713 471.312 331.977 C 470.019 332.197 471.021 331.977 467.828 331.977 C 451.236 331.977 308.062 329.585 253.527 331.977 C 214.81 333.675 185.305 340.019 162.929 340.689 C 147.681 341.145 142.494 337.671 128.083 338.946 C 108.351 340.693 76.397 351.472 53.165 354.627 C 32.306 357.459 5.028 348.879 -5.201 358.111 C -14.391 366.406 -6.973 392.257 -10.428 402.539 C -12.809 409.626 -15.402 414.011 -20.01 417.349 C -24.843 420.849 -33.407 423.44 -39.176 422.576 C -44.676 421.752 -50.104 419.317 -53.985 412.993 C -60.026 403.151 -63.774 372.158 -64.439 360.725 C -64.828 354.018 -62.76 356.098 -62.696 346.787 C -62.513 320.09 -78.646 192.178 -74.892 151.651 C -72.763 128.66 -67.862 118.506 -60.954 106.352 C -59.432 103.673 -57.574 101.027 -55.55 98.496 C -61.243 96.346 -66.174 93.407 -67.575 89.626 C -69.62 84.107 -63.022 71.213 -59.734 67.848 C -57.676 65.74 -56.676 66.408 -52.765 66.105 C -44.595 65.473 -22.58 65.076 -7.466 67.848 C 8.2 70.721 25.604 80.772 39.575 83.528 C 51.215 85.824 61.237 81.701 70.936 85.27 C 74.62 86.626 77.828 88.992 80.962 91.736 C 91.1 94.95 101.106 102.991 108.974 110.295 C 122.608 114.867 140.269 118.41 144.983 121.858 C 145.95 122.565 146.188 123.262 146.246 123.937 C 150.867 125.686 155.379 127.471 159.651 129.234 C 170.467 130.049 185.393 130.369 194.638 134.054 C 208.147 139.44 224.44 153.18 230.355 159.317 C 232.333 161.369 232.346 162.814 232.843 164.318 C 233.346 164.425 233.852 164.558 234.362 164.718 Z" style="stroke: rgb(129, 151, 57); stroke-width: 2px; fill: rgb(123, 144, 101);"/>
  <path stroke="rgb(255,0,0)" stroke-width="0" d="M 1397.856 -94.184 C 1404.427 -93.573 1425.86 -88.794 1430.088 -82.859 C 1433.324 -78.317 1426.935 -70.218 1428.346 -65.437 C 1429.621 -61.114 1435.245 -59.664 1437.057 -54.983 C 1439.282 -49.236 1440.084 -37.42 1438.799 -32.333 C 1437.924 -28.866 1432.62 -27.529 1433.573 -25.364 C 1435.007 -22.102 1452.397 -21.351 1456.222 -16.653 C 1456.355 -16.489 1456.482 -16.318 1456.601 -16.14 C 1456.649 -16.137 1456.697 -16.133 1456.745 -16.13 C 1478.737 -14.576 1543.803 0.497 1555.184 10.875 C 1560.577 15.793 1558.267 22.516 1556.926 26.556 C 1555.762 30.064 1552.916 32.727 1549.086 34.396 C 1544.143 36.55 1538.071 37.186 1528.178 36.138 C 1525.378 35.842 1521.875 35.154 1517.906 34.206 C 1515.484 37.539 1510.122 40.517 1510.233 44.327 C 1510.389 49.713 1520.055 59.435 1523.3 62.621 C 1525.09 64.378 1526.476 63.491 1527.656 65.234 C 1529.443 67.877 1531.756 75.122 1531.14 79.173 C 1530.58 82.86 1527.373 86.934 1525.042 88.755 C 1523.196 90.197 1520.288 88.816 1518.944 90.497 C 1517.192 92.69 1515.524 99.439 1517.202 102.693 C 1519.065 106.306 1527.72 106.152 1531.14 110.534 C 1535.143 115.662 1538.713 127.191 1538.109 133.183 C 1537.63 137.939 1530.647 141.837 1531.14 144.508 C 1531.547 146.711 1536.381 146.778 1538.109 148.864 C 1539.932 151.063 1541.564 154.111 1541.594 157.575 C 1541.631 161.92 1536.712 168.874 1536.367 173.256 C 1536.098 176.674 1538.794 178.943 1538.109 181.967 C 1537.293 185.571 1532.945 191.01 1530.269 193.292 C 1528.271 194.995 1525.501 194.119 1524.171 195.905 C 1522.568 198.059 1522.154 202.901 1522.429 206.359 C 1522.708 209.871 1526.24 213.297 1525.913 216.813 C 1525.565 220.552 1522.227 226.076 1519.815 228.137 C 1517.998 229.691 1515.039 228.386 1513.717 229.88 C 1512.205 231.588 1510.649 236.568 1511.975 238.591 C 1513.505 240.924 1521.523 239.036 1524.171 242.076 C 1527.259 245.62 1528.21 256.117 1527.656 260.369 C 1527.28 263.248 1525.391 264.665 1524.171 266.467 C 1523.058 268.111 1521.012 268.754 1520.687 270.823 C 1520.235 273.697 1524.689 279.325 1524.171 283.019 C 1523.676 286.553 1520.376 290.578 1518.073 292.602 C 1516.216 294.234 1512.682 293.029 1511.975 295.215 C 1510.833 298.749 1519.331 310.89 1518.944 316.122 C 1518.66 319.961 1514.364 321.517 1513.717 324.834 C 1513.019 328.417 1516.775 332.954 1515.46 337.03 C 1513.985 341.599 1509.594 347.548 1503.768 351.068 C 1513.723 356.239 1520.835 362.544 1524.868 368.042 C 1528.661 373.215 1529.27 378.727 1528.352 383.723 C 1527.399 388.909 1522.863 395.862 1518.77 398.532 C 1515.127 400.908 1509.156 398.059 1505.703 400.274 C 1502.116 402.576 1501.186 410.215 1497.863 412.47 C 1494.931 414.46 1492.599 414.316 1487.409 414.213 C 1478.227 414.03 1448.327 405.549 1443.852 407.244 C 1442.211 407.865 1444.922 409.639 1442.981 410.728 C 1436.272 414.493 1384.795 419.087 1363.707 419.439 C 1347.951 419.703 1336.945 415.456 1325.377 415.955 C 1315.138 416.397 1305.025 422.184 1297.501 421.182 C 1291.404 420.37 1286.259 418.181 1282.691 413.342 C 1278.212 407.267 1280.054 391.744 1275.722 384.594 C 1271.988 378.43 1263.563 376.015 1260.042 371.527 C 1257.15 367.841 1258.987 362.788 1254.815 360.202 C 1249.545 356.936 1232.448 360.074 1223.077 358.53 C 1205.982 360.682 1187.369 361.685 1176.935 359.157 C 1165.456 356.376 1156.916 347.188 1153.414 342.605 C 1151.403 339.974 1151.484 338.095 1151.672 335.636 C 1151.881 332.9 1155.035 329.415 1155.156 326.925 C 1155.174 326.56 1155.13 326.219 1155.046 325.893 C 1153.97 324.786 1153.26 323.522 1152.369 322.049 C 1150.17 318.413 1149.89 312.173 1150.626 308.111 C 1151.292 304.439 1154.149 300.579 1155.853 298.528 C 1157.033 297.109 1158.004 297.68 1159.338 295.915 C 1161.897 292.528 1165.088 279.847 1168.92 275.879 C 1171.763 272.935 1176.327 274.157 1178.503 271.523 C 1180.909 268.612 1178.647 261.599 1181.988 258.456 C 1186.152 254.539 1199.874 256.178 1204.637 252.358 C 1208.558 249.214 1207.391 242.049 1210.735 239.291 C 1214.074 236.537 1220.146 235.064 1224.673 235.806 C 1229.451 236.59 1235.954 245.22 1238.612 244.518 C 1240.63 243.985 1241.465 239.486 1241.225 236.678 C 1240.949 233.451 1236.011 229.958 1235.998 226.224 C 1235.985 222.163 1238.245 216.412 1242.096 213.157 C 1246.727 209.242 1258.864 209.904 1263.875 206.188 C 1263.965 206.121 1264.053 206.052 1264.139 205.982 C 1262.524 205.039 1261.179 203.99 1260.042 202.818 C 1258.119 200.836 1257.154 197.751 1256.766 195.231 C 1255.662 195.183 1254.713 195.117 1253.944 195.034 C 1248.964 194.494 1247.971 194.112 1246.103 191.549 C 1243.556 188.056 1241.657 177.814 1242.619 173.256 C 1242.623 173.236 1242.628 173.215 1242.632 173.195 C 1242.3 170.528 1242.256 168.004 1242.619 166.286 C 1243.367 162.742 1243.925 160.654 1248.717 158.446 C 1250.039 157.837 1251.845 157.258 1254.033 156.71 C 1253.487 154.112 1253.457 151.407 1253.769 149.353 C 1254.267 146.082 1254.765 143.202 1258.344 140.706 C 1255.897 139.873 1253.956 139.009 1252.724 138.123 C 1248.608 135.166 1248.784 131.314 1249.24 127.67 C 1249.256 127.544 1249.276 127.416 1249.3 127.286 C 1247.659 125.915 1246.356 124.347 1245.406 122.729 C 1243.653 119.743 1242.855 115.72 1243.664 112.276 C 1244.563 108.451 1248.543 103.035 1251.504 100.951 C 1253.892 99.272 1257.027 101.16 1259.345 99.209 C 1262.511 96.542 1263.945 86.655 1267.185 83.528 C 1269.69 81.111 1272.469 79.969 1275.823 80.042 C 1278.26 75.343 1280.658 69.402 1280.949 66.628 C 1281.209 64.15 1278.874 63.83 1279.207 61.401 C 1279.771 57.28 1283.753 46.744 1288.789 43.107 C 1289.374 42.685 1289.996 42.309 1290.651 41.975 C 1290.664 41.603 1290.683 41.225 1290.706 40.842 C 1291.285 31.31 1299.361 8.493 1302.031 3.383 C 1303.069 1.395 1303.275 2.381 1304.644 0.77 C 1307.693 -2.818 1313.201 -15.717 1321.196 -21.009 C 1324.152 -22.965 1328.651 -24.157 1333.533 -25.063 C 1331.043 -28.65 1330.702 -34.984 1331.823 -38.954 C 1332.894 -42.744 1336.52 -46.354 1339.664 -48.536 C 1342.665 -50.62 1345.521 -51.341 1350.117 -52.021 C 1352.339 -52.35 1355.296 -52.664 1358.5 -52.863 C 1360.477 -55.532 1362.915 -57.938 1364.753 -59.339 C 1367.291 -61.273 1370.329 -60.331 1372.593 -61.952 C 1375.03 -63.697 1376.734 -68.014 1378.691 -69.792 C 1380.187 -71.152 1382.585 -71.134 1383.047 -72.406 C 1383.523 -73.72 1380.888 -75.367 1381.304 -77.633 C 1381.968 -81.241 1387.614 -89.923 1390.887 -92.442 C 1393.172 -94.201 1394.334 -94.512 1397.856 -94.184 Z" style="stroke: rgb(129, 151, 57); stroke-width: 2px; fill: rgb(158, 176, 140);"/>
  <path stroke="rgb(255,0,0)" stroke-width="0" d="M 383.85 329.886 C 450.507 330.085 577.663 337.562 624.284 336.856 C 648.221 336.493 652.728 331.971 669.583 333.371 C 686.064 334.739 714.865 339.319 729.559 345.216 C 737.036 344.85 766.393 353.602 787.013 355.672 C 805.711 357.55 831.554 359.105 849.847 358.27 C 852.533 357.901 854.97 357.502 857.093 357.066 C 873.563 353.686 882.817 344.786 893.681 344.87 C 894.06 344.873 894.442 344.885 894.829 344.905 C 903.034 342.186 910.828 339.937 916.987 338.598 C 933.965 334.906 947.554 336.533 962.286 336.856 C 975.093 337.136 990.352 336.979 1000.72 339.396 C 1008.501 339.733 1016.146 339.989 1022.917 339.992 C 1048.116 340.003 1077.96 334.573 1099.578 338.249 C 1101.574 338.589 1103.619 339.009 1105.686 339.497 C 1106.771 339.426 1107.871 339.359 1108.986 339.295 C 1123.63 338.447 1149.547 340.209 1164.739 342.779 C 1176.723 344.807 1182.701 349.896 1194.358 351.491 C 1208.554 353.432 1233.669 348.553 1244.884 351.491 C 1252.245 353.419 1257.127 357.523 1259.693 361.073 C 1260.854 362.68 1261.428 364.375 1261.596 366.132 C 1264.631 368.512 1267.139 371.408 1269.798 375.011 C 1276.274 383.784 1284.265 404.266 1283.737 411.599 C 1283.431 415.836 1282.282 417.489 1277.639 419.439 C 1267.821 423.564 1234.026 425.585 1213.174 422.924 C 1211.829 422.752 1210.438 422.512 1209.011 422.215 C 1209.005 422.219 1208.999 422.223 1208.993 422.227 C 1203.46 425.952 1192.964 425.209 1181.116 425.712 C 1164.597 426.412 1138.313 423.976 1116.652 423.969 C 1094.759 423.963 1062.045 428.897 1050.445 425.712 C 1047.643 424.942 1045.776 423.93 1044.384 422.707 C 1028.2 422.244 1010.904 421.219 985.633 421.182 C 934.088 421.105 809.947 425.864 769.59 424.666 C 749.72 424.077 751.423 421.699 733.002 421.182 C 699.798 420.25 608.877 425.4 572.713 424.666 C 551.444 424.235 537.15 424.15 526.945 421.529 C 520.631 422.047 512.784 422.892 503.37 422.924 C 480.538 423.002 450.066 419.512 407.545 419.439 C 344.034 419.332 176.087 432.346 146.203 426.409 C 143.393 425.851 141.447 425.239 140.037 424.556 C 120.829 425.34 100.789 425.085 86.617 422.924 C 66.638 419.877 51.883 406.891 37.833 405.501 C 26.529 404.384 15.013 411.813 8.214 410.728 C 3.609 409.993 1.706 406.108 -1.368 404.63 C -4.075 403.329 -6.824 403.078 -9.208 402.017 C -11.442 401.022 -13.777 400.891 -15.306 398.532 C -15.958 397.527 -16.569 395.934 -17.097 394.074 C -23.745 393.478 -35.35 392.202 -39.524 392.608 C -42.288 392.878 -43.198 394.087 -44.751 394.351 C -46.044 394.57 -46.382 394.449 -48.235 394.351 C -51.907 394.156 -63.753 392.089 -67.4 392.608 C -69.326 392.883 -69.18 394.592 -70.885 394.351 C -74.004 393.909 -83.128 388.318 -85.694 384.768 C -87.645 382.07 -87.937 379.123 -87.437 376.057 C -86.857 372.501 -86.667 367.434 -81.339 364.732 C -70.858 359.418 -32.941 366.785 -11.648 361.247 C 8.706 355.954 25.275 338.201 44.105 333.371 C 61.89 328.809 81.101 330.314 98.116 331.629 C 114.087 332.863 130.467 340.923 143.415 340.34 C 154.2 339.855 160.459 333.208 171.292 331.629 C 184.203 329.747 202.652 331.289 216.591 331.629 C 229.148 331.934 234.546 333.257 251.437 333.371 C 280.237 333.566 331.344 329.73 383.85 329.886 Z" style="stroke: rgb(129, 151, 57); stroke-width: 2px; fill: rgb(155, 151, 202);"/>
  <path stroke="rgb(255,0,0)" stroke-width="0" d="M 1298.546 363.338 C 1327.685 361.465 1439.269 356.425 1484.97 365.08 C 1517.299 371.203 1547.977 387.139 1557.274 395.57 C 1561.514 399.415 1561.323 402.265 1560.759 406.024 C 1560.078 410.561 1556.884 418.882 1551.176 420.833 C 1543.38 423.499 1518.972 410.534 1513.717 412.122 C 1511.244 412.869 1513.023 415.994 1511.104 417.349 C 1508.229 419.38 1499.639 420.769 1495.423 420.833 C 1492.229 420.882 1489.171 418.133 1487.583 419.091 C 1486.065 420.007 1488.732 424.292 1485.841 426.06 C 1479.316 430.051 1440.209 430.097 1430.959 429.545 C 1426.861 429.3 1426.478 427.85 1423.99 427.802 C 1421.282 427.751 1421.346 429.155 1415.279 429.545 C 1398.812 430.602 1314.387 427.607 1281.697 427.646 C 1275.417 428.829 1268.81 430.009 1262.36 431.09 C 1262.291 431.452 1262.214 431.808 1262.132 432.158 C 1261.233 435.983 1258.294 441.232 1254.292 443.483 C 1249.718 446.056 1240.484 446.086 1235.127 445.225 C 1230.623 444.502 1226.287 443.216 1223.802 439.998 C 1222.96 438.908 1222.217 437.389 1221.618 435.674 C 1218.508 435.242 1218.193 434.362 1216.833 432.332 C 1214.658 429.085 1212.32 420.29 1213.349 415.781 C 1214.256 411.801 1217.925 408.075 1221.189 406.198 C 1224.353 404.379 1229.494 407.004 1232.514 404.456 C 1236.34 401.227 1232.541 389.773 1240.354 385.291 C 1245.973 382.067 1257.722 380.552 1271.611 379.907 C 1271.46 379.353 1271.408 378.775 1271.541 378.148 C 1272.253 374.802 1275.396 369.311 1279.381 366.823 C 1283.959 363.964 1286.74 364.097 1298.546 363.338 Z" style="stroke: rgb(129, 151, 57); stroke-width: 2px; fill: rgb(132, 153, 111);"/>
</svg>