<?xml version="1.0" encoding="utf-8"?>
<svg viewBox="0 0 2250 400" xmlns="http://www.w3.org/2000/svg">
  <rect x="0.13" y="0.835" width="2251.908" height="401.075" style="fill: rgb(233, 234, 255); stroke: rgb(233, 234, 255);"/>
  <g transform="matrix(1, 0, 0, 1, -43.592026, -49.819397)">
    <path d="M 348.501 71.01 C 339.559 68.03 330.001 73.066 320.902 74.077 C 308.551 75.449 295.579 79.116 285.856 87.219 C 283.034 89.571 280.688 93 277.532 95.104 C 255.637 109.701 236.899 135.961 228.467 161.254 C 224.56 172.975 227.591 185.545 227.591 197.615 C 227.591 227.005 238.392 250.761 256.504 273.402 C 259.584 277.252 264.712 277.628 267.456 281.288 C 282.719 301.638 307.08 317.024 331.854 321.153 C 336.903 321.994 342.499 320.276 347.625 320.276 C 355.939 320.276 364.286 320.439 372.595 319.4 C 379.775 318.503 385.873 314.375 392.309 311.515 C 396.138 309.813 401.019 310.143 404.575 308.01 C 419.984 298.764 436.576 284.637 448.383 271.65 C 467.296 250.845 467.688 220.826 469.41 194.986 C 470.074 185.03 471.16 173.726 468.972 163.883 C 465.969 150.369 456.191 140.098 449.697 129.274 C 446.589 124.095 445.437 117.703 441.811 112.627 C 436.168 104.727 425.823 97.926 418.593 91.6 C 414.545 88.057 408.05 88.851 403.699 85.467 C 396.966 80.23 388.611 70.705 380.48 68.382 C 366.905 64.503 352.251 68.82 338.863 68.82" style="paint-order: stroke; fill: none; stroke: rgb(255, 255, 255); stroke-width: 7px;"/>
    <path d="M 288.484 88.095 C 293.964 90.444 298.842 94.15 304.255 96.857 C 307.951 98.705 313.333 97.593 317.397 98.609 C 326.831 100.967 336.977 101.799 346.748 103.428 C 356.066 104.981 372.066 111.14 381.357 106.494 C 388.792 102.777 397.854 100.655 405.451 96.857 C 407.291 95.937 412.468 88.971 412.898 88.971" style="fill: none; stroke: rgb(255, 255, 255); stroke-width: 7px;"/>
    <path d="M 269.209 106.494 C 279.917 112.919 271.702 122.956 262.199 125.332 C 257.965 126.39 255.458 123.141 251.686 123.141" style="fill: none; stroke: rgb(255, 255, 255); stroke-width: 7px;"/>
    <path d="M 231.096 155.997 C 236.226 155.142 241.047 151.28 245.991 149.426 C 251.096 147.511 257.029 147.911 262.199 146.359 C 272.295 143.331 281.226 139.892 291.551 137.598 C 296.566 136.483 301.118 132.376 305.569 130.151 C 309.166 128.352 313.585 128.771 316.959 127.084 C 323.143 123.992 330.706 120.176 337.549 119.199 C 346.893 117.864 354.625 122.263 363.395 124.018 C 376.664 126.671 397.408 125.469 408.079 116.132 C 411.322 113.295 421.998 98.171 421.66 98.171" style="fill: none; stroke: rgb(255, 255, 255); stroke-width: 7px;"/>
    <path d="M 432.174 109.123 C 429.771 114.528 419.898 126.06 431.297 127.96 C 433.197 128.277 435.521 127.96 437.431 127.96 C 439.767 127.96 442.103 127.96 444.44 127.96" style="fill: none; stroke: rgb(255, 255, 255); stroke-width: 7px;"/>
    <path d="M 358.138 138.912 C 347.21 135.269 325.573 135.7 313.893 138.036 C 310.292 138.756 301.019 147.843 298.122 150.74 C 293.361 155.501 287.485 157.038 283.665 162.13 C 283.266 162.663 280.321 165.795 281.475 166.949 C 284.586 170.06 293.815 168.65 297.684 168.263 C 313.507 166.681 330.536 163.666 343.682 153.807 C 348.729 150.022 354.521 148.663 359.015 144.169 C 359.822 143.362 362.535 140.242 361.205 138.912 C 360.115 137.822 356.991 138.092 355.51 137.598" style="fill: none; stroke: rgb(255, 255, 255); stroke-width: 7px;"/>
    <path d="M 228.029 179.215 C 238.407 177.918 246.979 170.016 257.381 170.016 C 267.426 170.016 276.165 175.202 285.856 176.587 C 296.262 178.073 309.539 179.56 320.026 177.463 C 325.714 176.325 328.827 171.972 334.044 170.016 C 355.399 162.008 374.77 149.495 395.375 140.664 C 408.109 135.207 422.879 140.245 436.116 137.598 C 438.361 137.149 444.135 134.531 445.316 134.531" style="fill: none; stroke: rgb(255, 255, 255); stroke-width: 7px;"/>
    <path d="M 234.162 226.966 C 239.717 219.19 255.206 210.645 264.828 209.443 C 271.983 208.548 279.362 211.81 286.732 210.757 C 291.6 210.061 297.609 209.918 302.064 207.69 C 306.049 205.698 310.12 201.119 314.769 201.119 C 321.304 201.119 328.846 208.957 336.235 209.881 C 350.581 211.674 364.39 211.785 378.29 209.005 C 389.04 206.855 391.279 190.179 396.251 182.72 C 398.814 178.876 407.565 172.901 411.584 170.892 C 420.073 166.647 429.053 170.027 437.869 168.263 C 442.879 167.261 445.071 162.91 449.259 160.816 C 452.932 158.979 460.211 155.934 460.211 150.74" style="fill: none; stroke: rgb(255, 255, 255); stroke-width: 7px;"/>
    <path d="M 237.229 229.156 C 242.775 228.54 252.512 224.152 257.819 225.214 C 264.702 226.59 269.667 229.313 277.094 226.528 C 282.727 224.415 289.305 216.205 295.931 219.518 C 297.759 220.432 298.028 224.984 296.369 226.09 C 291.396 229.405 286.294 231.237 281.475 234.851 C 273.053 241.167 263.553 237.161 254.314 234.851 C 249.25 233.585 244.435 237.918 239.857 237.918" style="fill: none; stroke: rgb(255, 255, 255); stroke-width: 7px;"/>
    <path d="M 329.663 218.642 C 327.113 217.185 326.976 216.985 324.845 216.452 C 310.255 212.804 323.426 235.393 334.92 223.899 C 339.416 219.404 328.093 212.765 325.283 215.576" style="fill: none; stroke: rgb(255, 255, 255); stroke-width: 7px;"/>
    <path d="M 242.486 243.175 C 256.94 231.611 267.818 247.555 281.913 247.555 C 289.414 247.555 293.797 242.99 300.312 240.546 C 303.513 239.346 306.913 239.74 309.95 237.918 C 314.128 235.411 317.643 232.062 322.654 231.347 C 335.348 229.533 346.289 238.942 359.453 237.48 C 367.363 236.601 377.122 223.972 386.614 228.718 C 388.437 229.63 384.863 235.287 383.985 236.165 C 378.967 241.183 367.321 242.082 360.767 243.175" style="fill: none; stroke: rgb(255, 255, 255); stroke-width: 7px;"/>
    <path d="M 354.196 244.927 C 347.944 248.053 342.997 249.746 335.797 249.746 C 332.264 249.746 325.856 247.783 322.654 250.184 C 318.774 253.094 317.909 261.901 315.207 265.955 C 312.561 269.923 305.294 271.139 301.188 272.964 C 293.797 276.249 274.028 275.158 274.028 286.106" style="fill: none; stroke: rgb(255, 255, 255); stroke-width: 7px;"/>
    <path d="M 355.948 269.021 C 349.338 267.369 341.492 266.94 334.92 268.583 C 328.056 270.299 335.72 277.934 338.863 278.659 C 343.214 279.663 351.277 280.978 355.51 279.097 C 368.629 273.266 349.741 266.831 344.558 266.831" style="fill: none; stroke: rgb(255, 255, 255); stroke-width: 7px;"/>
    <path d="M 302.503 308.886 C 298.333 308.052 301.202 302.655 303.817 300.563 C 309.736 295.827 315.67 291.36 323.53 290.487 C 329.942 289.775 332.513 293.035 337.549 296.182 C 344.102 300.278 356.419 304.502 364.272 303.629 C 376.435 302.278 382.2 289.636 390.994 283.04 C 397.228 278.365 409.233 288.735 416.403 288.735 C 417.986 288.735 430.421 279.37 430.421 283.478" style="fill: none; stroke: rgb(255, 255, 255); stroke-width: 7px;"/>
    <path d="M 444.002 269.021 C 439.091 268.32 432.843 267.921 428.231 269.897 C 422.957 272.158 418.279 279.782 413.774 270.774 C 411.972 267.169 420.97 261.178 423.85 260.698 C 427.212 260.138 436.275 265.397 437.869 264.202 C 443.939 259.65 449.017 246.438 455.392 252.812" style="fill: none; stroke: rgb(255, 255, 255); stroke-width: 7px;"/>
    <path d="M 457.144 243.613 C 454.419 229.988 437.615 247.29 433.05 248.432 C 428.72 249.514 421.757 250.203 417.279 249.308 C 412.902 248.432 406.848 245.753 402.384 248.432 C 400.614 249.494 399.758 250.839 398.442 252.374 C 396.541 254.591 386.185 266.412 383.109 260.26 C 379.637 253.316 391.106 242.681 396.251 240.108 C 398.053 239.207 400.722 239.52 401.946 237.48 C 404.998 232.394 404.558 224.786 409.832 221.271 C 418.689 215.366 431.683 221.606 440.497 214.262 C 448.016 207.996 446.623 199.96 452.325 192.358 C 454.969 188.833 463.715 183.45 463.715 180.091" style="fill: none; stroke: rgb(255, 255, 255); stroke-width: 7px;"/>
    <path d="M 439.183 180.53 C 425.642 180.53 419.472 180.528 407.641 188.415 C 404.097 190.778 397.781 205.773 403.699 207.252 C 409.915 208.807 413.943 202.13 418.593 199.805 C 422.588 197.808 427.772 200.034 431.736 198.053 C 434.422 196.71 434.924 193.427 436.116 191.043 C 439.175 184.927 444.519 183.237 439.621 178.339" style="fill: none; stroke: rgb(255, 255, 255); stroke-width: 7px;"/>
  </g>
  <g transform="matrix(1, 0, 0, 1, -128.700211, 68.501663)">
    <path d="M 688.673 73.04 C 677.218 66.494 662.629 71.444 650.804 74.669 C 646.047 75.966 640.908 75.584 636.145 76.705 C 628.301 78.55 619.102 82.712 611.714 86.07 C 601.283 90.811 593.72 100.428 587.282 109.28 C 582.798 115.446 576.48 120.394 572.216 126.789 C 563.937 139.209 558.628 156.562 553.893 170.766 C 548.365 187.347 557.093 204.044 560 220.036 C 561.201 226.641 562.126 234.769 564.887 241.21 C 572.581 259.164 590.574 272.692 605.606 283.966 C 610.918 287.95 613.593 295.924 619.45 299.439 C 633.203 307.69 648.419 309.706 663.834 311.247 C 669.908 311.855 675.232 315.421 680.936 316.134 C 686.82 316.869 694.531 314.132 700.075 312.469 C 709.579 309.618 716.917 308.934 726.135 304.325 C 736.28 299.252 748.741 296.99 757.896 289.666 C 781.015 271.171 799.837 235.635 799.837 205.377 C 799.837 198.901 801.154 188.61 799.429 182.575 C 796.465 172.2 792.637 162.56 788.842 152.442 C 785.542 143.642 784.479 134.312 779.477 125.975 C 776.547 121.091 769.785 116.69 765.632 112.538 C 757.906 104.812 751.662 94.266 742.422 88.106 C 738.967 85.802 733.233 85.273 729.392 83.627 C 726.094 82.213 723.976 79.107 720.434 77.926 C 707.104 73.483 691.563 70.597 677.679 70.597" style="fill: none; stroke: rgb(255, 255, 255); stroke-width: 7px;"/>
    <path d="M 648.768 86.07 C 654.053 86.07 670.257 82.314 674.014 86.07 C 680.211 92.266 666.578 96.079 662.206 94.621 C 659.68 93.779 656.455 89.735 655.283 89.735" style="fill: none; stroke: rgb(255, 255, 255); stroke-width: 7px;"/>
    <path d="M 641.846 95.436 C 634.569 96.475 630.957 99.709 625.151 103.579 C 624.386 104.089 621.894 105.007 621.894 105.615" style="fill: none; stroke: rgb(255, 255, 255); stroke-width: 7px;"/>
    <path d="M 626.373 109.687 C 620.02 117.099 608.913 124.426 605.199 133.712 C 604.909 134.435 602.371 139.842 603.163 140.634 C 604.654 142.125 606.065 146.18 605.199 148.778 C 603.45 154.025 601.127 161.987 601.127 167.509 C 601.127 171.061 607.235 173.479 607.235 176.06" style="fill: none; stroke: rgb(255, 255, 255); stroke-width: 7px;"/>
    <path d="M 606.013 179.317 C 628.843 204.684 601.628 174.202 610.899 185.018 C 610.95 185.077 614.259 188.173 614.564 187.868 C 618.37 184.062 613.816 173.924 617.007 169.137 C 619.188 165.866 622.985 168.167 625.151 170.766 C 627.566 173.664 629.63 183.027 629.63 186.647" style="fill: none; stroke: rgb(255, 255, 255); stroke-width: 7px;"/>
    <path d="M 557.964 169.952 C 560.309 170.287 564.447 169.696 566.515 171.173 C 575.186 177.367 566.247 193.697 562.851 200.491 C 562.456 201.281 559.312 201.179 558.372 202.12" style="fill: none; stroke: rgb(255, 255, 255); stroke-width: 7px;"/>
    <path d="M 634.924 191.126 C 644.807 194.091 663.28 200.156 660.984 213.928 C 659.927 220.272 649.787 226.35 652.026 233.067 C 653.557 237.662 663.458 242.463 667.092 246.097 C 671.25 250.255 670.757 265.846 670.757 271.75" style="fill: none; stroke: rgb(255, 255, 255); stroke-width: 7px;"/>
    <path d="M 679.308 282.744 C 679.53 283.857 679.488 289.553 681.344 290.481 C 684.155 291.886 684.829 288.514 686.637 287.223 C 690.958 284.137 695.371 282.421 696.817 276.636 C 697.741 272.939 695.231 266.399 697.631 263.199 C 700.722 259.078 704.919 257.132 706.997 255.055" style="fill: none; stroke: rgb(255, 255, 255); stroke-width: 7px;"/>
    <path d="M 717.991 246.504 C 725.562 247.585 740.507 249.137 743.237 239.582 C 744.877 233.843 743.546 227.598 744.458 221.665 C 745.543 214.618 750.036 203.095 746.494 196.012 C 743.382 189.788 737.416 191.413 733.871 187.868" style="fill: none; stroke: rgb(255, 255, 255); stroke-width: 7px;"/>
    <path d="M 715.141 188.683 C 709.039 188.683 700.629 187.398 694.781 189.904 C 690.448 191.761 685.927 200.34 679.715 197.234 C 670.962 192.857 685.136 184.33 678.901 178.096 C 671.127 170.322 671.213 186.044 665.056 185.018 C 652.565 182.936 657.784 169.603 665.463 163.844 C 670.184 160.303 676.113 160.294 681.344 158.55 C 685.348 157.216 682.179 172.228 687.452 171.173 C 693.348 169.994 691.038 162.359 694.781 159.365 C 698.772 156.172 704.914 153.447 708.218 149.592 C 711.634 145.607 712.208 139.657 715.141 135.748 C 719.629 129.763 733.378 130.039 726.542 118.646 C 721.202 109.746 708.616 127.812 703.332 130.454 C 702.247 130.997 697.028 133.923 695.595 132.49 C 692.901 129.796 698.36 125.437 700.075 124.346 C 706.165 120.471 711.859 114.684 716.362 109.28 C 717.876 107.464 721.604 106.534 722.47 104.801 C 725.898 97.947 714.719 97.458 712.29 95.028" style="fill: none; stroke: rgb(255, 255, 255); stroke-width: 7px;"/>
    <path d="M 689.08 103.987 C 683.673 106.304 679.308 112.148 679.308 118.238 C 679.308 122.793 686.874 129.154 679.308 131.676 C 672.192 134.047 672.827 120.088 668.313 117.831 C 666.138 116.743 658.267 123.656 657.319 119.867 C 656.306 115.815 662.449 108.546 661.391 106.43 C 658.602 100.851 648.562 103.318 643.882 103.987 C 642.716 104.153 635.097 105.733 637.774 104.394" style="fill: none; stroke: rgb(255, 255, 255); stroke-width: 7px;"/>
    <path d="M 641.032 110.909 C 644.153 109.348 653.241 108.052 656.098 110.909" style="fill: none; stroke: rgb(255, 255, 255); stroke-width: 7px;"/>
    <path d="M 785.178 179.724 C 781.01 181.114 778.097 183.748 774.183 185.425 C 773.176 185.857 768.61 186.112 768.076 186.647 C 766.818 187.904 770.029 199.845 769.297 202.527 C 768.411 205.776 767.713 211.14 766.04 213.928 C 765.067 215.55 761.968 218.874 761.968 220.036 C 761.968 222.3 768.568 226.541 769.704 228.587 C 770.709 230.396 771.165 232.898 772.555 234.288" style="fill: none; stroke: rgb(255, 255, 255); stroke-width: 7px;"/>
    <path d="M 780.699 243.246 C 782.101 247.455 781.985 254.306 785.178 257.498" style="fill: none; stroke: rgb(255, 255, 255); stroke-width: 7px;"/>
    <path d="M 655.283 310.026 C 660.634 302.892 665.263 303.269 672.793 299.846 C 674.976 298.854 676.518 295.843 678.901 295.367 C 682.645 294.618 685.735 297.81 689.487 297.81 C 695.047 297.81 703.728 296.551 709.033 294.96 C 714.255 293.393 719.615 292.993 724.913 292.109 C 726.386 291.864 729.392 290.616 729.392 292.109 C 729.392 294.605 724.853 301.068 728.578 301.068" style="fill: none; stroke: rgb(255, 255, 255); stroke-width: 7px;"/>
  </g>
  <g>
    <path d="M 83.045 127.345 C 76.912 127.345 68.792 126.652 62.901 128.335 C 55.352 130.492 48.489 136.667 42.427 141.214 C 40.908 142.354 38.8 142.367 37.143 143.196 C 34.583 144.476 31.612 148.396 29.548 150.461 C 26.281 153.728 24.843 159.107 22.613 163.009 C 14.265 177.619 13.136 195.637 18.981 211.222 C 20.936 216.436 23.509 221.481 25.585 226.413 C 26.401 228.351 26.41 230.87 27.897 232.357 C 30.716 235.177 34.488 239.45 38.134 241.273 C 41.128 242.77 44.546 242.78 47.38 244.906 C 52.51 248.753 59.704 255.494 66.203 256.794 C 71.872 257.928 79.566 262.382 85.356 261.417 C 91.128 260.455 100.275 259.033 105.5 256.794 C 107.836 255.793 109.179 252.539 111.444 251.18 C 115.543 248.721 120.556 245.428 123.663 241.934 C 127.118 238.047 128.682 232.609 131.918 228.725 C 135.852 224.004 139.887 218.359 141.825 212.543 C 146.683 197.969 144.437 182.345 141.495 167.632 C 140.475 162.53 135.06 160.375 132.579 156.405 C 128.91 150.535 122.846 146.672 118.049 141.875 C 116.629 140.455 116.186 138.314 114.416 137.252 C 112.465 136.081 110.048 136.223 108.142 135.27 C 104.451 133.425 101.256 130.142 97.245 128.996 C 91.769 127.432 84.529 128.912 79.412 126.354" style="fill: none; stroke-width: 7px; stroke: rgb(255, 255, 255);"/>
    <path d="M 61.58 141.545 C 58.834 141.937 55.822 141.947 53.324 143.196 C 48.978 145.369 46.506 153.063 50.683 156.405 C 56.408 160.985 68.778 156.54 71.817 150.461 C 74.285 145.525 69.506 145.097 69.506 143.196" style="fill: none; stroke-width: 7px; stroke: rgb(255, 255, 255);"/>
    <path d="M 22.613 188.767 C 22.613 184.952 26.236 173.242 32.19 176.218 C 37.733 178.99 39.561 189.325 39.785 194.711 C 39.969 199.116 39.959 203.484 38.134 207.59 C 36.881 210.408 30.824 213.159 28.227 210.562 C 25.489 207.824 25.585 202.166 25.585 199.995" style="fill: none; stroke-width: 7px; stroke: rgb(255, 255, 255);"/>
    <path d="M 56.957 232.357 C 51.998 225.745 42.785 208.117 48.701 199.665 C 50.622 196.92 55.481 195.193 58.278 193.72 C 62.544 191.475 67.307 189.334 72.147 191.409 C 85.985 197.339 93.612 209.829 93.612 224.762 C 93.612 229.025 95.345 237.657 90.97 240.283 C 85.032 243.846 76.36 240.722 71.487 237.31 C 70.246 236.442 64.586 233.975 65.873 232.687" style="fill: none; stroke-width: 7px; stroke: rgb(255, 255, 255);"/>
    <path d="M 52.664 246.227 C 47.853 237.807 60.496 238.696 64.882 242.594 C 70.903 247.946 60.259 254.964 60.259 251.51" style="fill: none; stroke-width: 7px; stroke: rgb(255, 255, 255);"/>
    <path d="M 127.295 224.101 C 123.479 224.737 118.667 225.111 115.077 226.743 C 112.514 227.908 110.612 230.574 108.472 232.357 C 107.732 232.974 99.844 244.906 105.5 244.906 C 113.559 244.906 115.45 239.704 121.021 235.99 C 123.438 234.378 128.286 233.222 128.286 230.045" style="fill: none; stroke-width: 7px; stroke: rgb(255, 255, 255);"/>
    <path d="M 129.937 188.767 C 126.149 189.24 125.297 189.861 123.002 192.73 C 119.465 197.152 117.689 204.97 122.672 209.241 C 124.424 210.742 133.163 215.44 134.891 211.553 C 136.29 208.404 136.125 204.346 136.872 200.985 C 137.578 197.808 139.063 195.462 137.532 192.4" style="fill: none; stroke-width: 7px; stroke: rgb(255, 255, 255);"/>
    <path d="M 101.538 135.931 C 93.2 135.004 85.679 144.171 89.649 152.112 C 93.182 159.177 102.231 162.208 108.142 166.642 C 110.892 168.704 113.508 171.876 117.058 172.586 C 118.716 172.917 123.039 174.053 124.653 173.246 C 128.889 171.128 128.729 161.913 126.965 158.386 C 123.896 152.247 116.234 147.902 110.123 144.847" style="fill: none; stroke-width: 7px; stroke: rgb(255, 255, 255);"/>
  </g>
  <g transform="matrix(1, 0, 0, 1, -222.111603, -78.880745)">
    <path d="M 983.052 98.867 C 972.466 96.514 962.662 101.102 952.645 103.414 C 947.526 104.595 941.769 104.447 937.016 106.824 C 926.837 111.913 919.089 119.72 911.725 128.137 C 907.073 133.453 900.754 137.062 896.663 143.198 C 890.318 152.716 887.02 167.11 886.149 178.435 C 885.741 183.735 887.272 189.398 887.854 194.633 C 888.149 197.292 887.247 200.01 887.57 202.59 C 889.156 215.283 893.211 228.081 898.937 239.532 C 900.545 242.749 905.415 246.295 908.03 248.91 C 911.305 252.185 913.99 258.472 917.976 261.13 C 932.996 271.143 947.538 278.844 965.717 281.874 C 974.156 283.281 985.305 283.251 993.566 281.874 C 996.243 281.428 999.22 281.846 1001.807 280.738 C 1004.028 279.786 1005.795 277.765 1008.059 276.759 C 1017.016 272.778 1024.434 269.738 1032.214 263.687 C 1039.453 258.056 1046.133 252.897 1051.253 245.216 C 1063.428 226.954 1067.012 199.93 1064.325 178.435 C 1063.615 172.753 1060.522 167.605 1059.494 161.953 C 1058.591 156.986 1058.119 151.813 1055.8 147.176 C 1054.243 144.062 1051.658 141.329 1049.264 138.935 C 1047.471 137.142 1046.979 134.372 1045.57 132.399 C 1042.075 127.507 1037.75 123.074 1033.066 119.327 C 1027.891 115.187 1020.58 113.654 1014.879 110.234 C 1002.754 102.959 991.493 98.583 977.084 98.583" style="fill: none; stroke: rgb(255, 255, 255); stroke-width: 7px;"/>
    <path d="M 952.645 113.36 C 944.327 111.28 937.59 117.476 931.332 122.169 C 926.608 125.713 921.94 129.09 918.26 133.82 C 915.853 136.915 906.523 143.374 912.861 147.176 C 916.844 149.566 920.633 147.333 924.512 146.04 C 929.391 144.414 931.773 142.153 935.879 139.219 C 942.284 134.645 951.4 130.744 956.34 124.158 C 961.372 117.448 957.332 111.939 950.088 111.939" style="fill: none; stroke: rgb(255, 255, 255); stroke-width: 7px;"/>
    <path d="M 902.063 138.083 C 901.251 140.79 900.358 142.379 900.358 145.187 C 900.358 146.755 900.215 148.239 900.642 149.734 C 901.644 153.241 904.213 156.953 908.314 156.27 C 911.018 155.819 916.628 153.928 918.545 157.122 C 921.977 162.842 916.64 175.892 925.081 177.299 C 928.369 177.847 933.054 177.289 935.879 175.594 C 939.017 173.711 943.11 169.142 947.246 171.899 C 954.65 176.836 947.945 192.071 957.192 195.77 C 964.232 198.586 974.056 200.327 981.631 201.169 C 984.164 201.451 991.957 201.929 993.282 204.579 C 995.351 208.716 987.819 214.175 984.757 215.094 C 974.286 218.235 964.257 210.492 953.782 212.82 C 945.682 214.62 951.325 221.564 952.361 226.745 C 952.909 229.485 947.429 233.347 944.973 232.996 C 934.587 231.513 931.037 218.615 920.534 216.514 C 917.488 215.905 911.697 214.16 910.02 217.935 C 906.428 226.017 909.566 238.155 918.545 241.522 C 922.064 242.841 927.948 240.482 930.196 244.079 C 932.36 247.543 930.888 251.324 931.332 254.878 C 932.031 260.469 937.419 265.685 942.699 267.666 C 947.229 269.364 952.53 267.457 957.192 268.234 C 961.321 268.922 971.969 276.563 971.969 280.169" style="fill: none; stroke: rgb(255, 255, 255); stroke-width: 7px;"/>
    <path d="M 889.843 163.942 C 901.524 163.943 892.728 174.981 898.084 179.572 C 902.803 183.617 912.184 182.499 917.976 182.982 C 919.671 183.123 922.796 182.689 924.228 183.835 C 930.572 188.91 921.382 195.608 916.271 196.338 C 915.103 196.505 912.262 196.653 911.44 197.475 C 910.852 198.064 908.754 200.692 909.451 201.737 C 910.323 203.045 914.609 205.975 911.725 207.705 C 907.451 210.269 903.365 208.303 898.937 209.41 C 893.523 210.764 892.117 217.146 892.117 221.914" style="fill: none; stroke: rgb(255, 255, 255); stroke-width: 7px;"/>
    <path d="M 971.117 255.446 C 972.208 251.082 968.174 245.288 972.253 242.374 C 983.387 234.421 997.391 234.642 1009.764 229.018 C 1015.051 226.615 1020.569 220.207 1026.246 219.072 C 1030.505 218.22 1032.352 222.8 1031.93 226.176 C 1031.258 231.553 1024.136 234.156 1020.279 236.407 C 1018.077 237.691 1016.544 239.677 1014.311 240.953 C 1012.66 241.897 1010.111 242.012 1008.912 243.511 C 1004.433 249.11 1014.029 258.626 1008.627 265.108 C 1005.849 268.442 1000.083 268.518 996.124 268.518 C 987.994 268.518 978.685 269.871 972.822 262.835 C 969.06 258.32 973.106 255.414 973.106 250.899" style="fill: none; stroke: rgb(255, 255, 255); stroke-width: 7px;"/>
    <path d="M 1025.394 267.381 C 1024.844 266.282 1023.923 264.7 1023.404 263.403 C 1022.99 262.368 1022.662 261.094 1022.552 259.993 C 1021.747 251.946 1029.699 254.267 1033.635 250.331 C 1034.122 249.843 1031.776 248.724 1031.646 248.626 C 1030.404 247.695 1029.463 246.081 1029.94 244.648 C 1033.112 235.134 1046.138 232.806 1046.138 221.345 C 1046.138 218.746 1045.262 213.341 1044.149 211.115 C 1043.322 209.461 1041.257 206.873 1041.592 204.863 C 1042.857 197.271 1048.72 192.002 1050.969 185.255 C 1052.148 181.718 1050.239 177.543 1048.696 174.457 C 1048.119 173.303 1045.696 175.772 1045.286 176.73 C 1042.782 182.572 1037.99 187.522 1035.056 178.719 C 1033.793 174.933 1037.322 171.344 1038.75 168.489 C 1040.666 164.658 1041.531 158.015 1040.455 153.712 C 1039.978 151.803 1034.884 144.771 1032.782 145.471 C 1031.625 145.857 1030.55 149.897 1029.088 149.166 C 1026.094 147.669 1023.93 136.41 1018.289 140.64 C 1016.097 142.284 1015.356 145.246 1014.027 147.46 C 1011.632 151.452 1008.664 155.069 1006.354 159.112 C 1005.397 160.787 1001.248 163.947 998.966 162.806 C 993.707 160.177 995.938 160.245 995.84 157.975 C 995.749 155.891 995.555 153.809 995.555 151.723 C 995.555 150.785 997.025 150.514 997.545 149.734 C 1000.17 145.796 1005.41 140.952 1001.523 136.094 C 998.602 132.442 991.993 137.64 988.451 138.083 C 982.411 138.838 983.405 136.287 979.358 133.252 C 977.435 131.81 970.786 132.613 969.696 130.978 C 968.148 128.657 971.513 122.778 972.822 121.032 C 975.203 117.857 979.5 116.059 981.631 112.507 C 983.112 110.038 982.58 106.229 981.631 103.698 C 981.273 102.743 979.789 100.994 980.779 100.004" style="fill: none; stroke: rgb(255, 255, 255); stroke-width: 7px;"/>
    <path d="M 1024.257 165.079 C 1018.087 161.994 1015.823 170.603 1013.458 174.741 C 1012.189 176.962 1011.014 180.027 1009.196 181.845 C 1004.893 186.148 997.803 186.88 1000.386 194.633 C 1001.287 197.334 1003.8 199.474 1004.649 202.022 C 1005.051 203.229 1003.869 208.31 1004.933 208.842 C 1011.145 211.947 1017.735 208.827 1021.984 204.579 C 1023.275 203.287 1026.121 200.509 1025.394 198.327 C 1023.864 193.739 1020.204 190.491 1021.699 185.255 C 1023.253 179.818 1026.53 175.494 1026.53 169.626 C 1026.53 167.782 1025.339 164.227 1023.12 164.227" style="fill: none; stroke: rgb(255, 255, 255); stroke-width: 7px;"/>
    <path d="M 959.181 157.122 C 954.429 157.122 954.887 150.018 950.088 150.018 C 945.708 150.018 941.21 153.264 939.005 157.122 C 938.447 158.099 936.362 162.337 937.868 163.09 C 940.613 164.462 947.177 161.6 949.235 163.658 C 950.49 164.913 948.966 167.935 950.088 169.058 C 953.684 172.654 959.8 169.994 964.012 171.047 C 969.491 172.416 966.828 178.355 967.991 181.845 C 968.575 183.599 971.152 184.9 972.538 185.824 C 973.797 186.663 974.946 187.275 976.516 186.96 C 978.79 186.506 979.933 183.925 980.494 182.13 C 981.53 178.814 981.932 176.231 981.063 172.752 C 980.396 170.084 976.098 168.816 977.084 165.363 C 978.274 161.2 983.48 157.987 982.768 153.712 C 982.426 151.661 979.746 151.591 978.221 151.439 C 972.174 150.834 969.705 154.467 964.297 156.27 C 963.72 156.462 957.761 158.174 957.761 156.554" style="fill: none; stroke: rgb(255, 255, 255); stroke-width: 7px;"/>
    <path d="M 995.84 101.709 C 995.106 103.908 993.566 106.496 993.566 108.813 C 993.566 110.875 997.725 113.214 995.271 116.486 C 994.016 118.16 984.43 125.05 988.167 127.853 C 990.691 129.745 992.805 127.697 994.703 126.432 C 998.997 123.569 1006.087 116.774 1011.753 118.191 C 1016.783 119.448 1011.864 127.624 1015.732 129.558 C 1019.508 131.446 1021.339 126.173 1023.973 125.295 C 1027.422 124.145 1026.362 129.312 1028.804 130.126 C 1031.074 130.883 1031.982 127.302 1033.635 127.853 C 1036.173 128.699 1036.569 132.965 1037.897 134.957 C 1039.684 137.637 1043.311 137.514 1046.138 137.514" style="fill: none; stroke: rgb(255, 255, 255); stroke-width: 7px;"/>
  </g>
  <g transform="matrix(1, 0, 0, 1, -309.295502, -2.883151)">
    <path d="M 1360.352 17.199 C 1349.533 15.846 1336.266 20.008 1325.891 22.838 C 1315.924 25.556 1304.982 24.125 1295.189 28.477 C 1289.912 30.822 1285.57 35.553 1280.152 37.875 C 1265.464 44.17 1251.709 43.637 1238.172 54.166 C 1219.903 68.375 1202.462 92.755 1191.179 113.063 C 1185.245 123.745 1184.398 136.91 1179.901 148.151 C 1177.064 155.244 1172.65 161.849 1171.129 169.454 C 1167.751 186.343 1168.914 203.216 1167.37 220.206 C 1165.687 238.722 1163.778 260.806 1169.876 279.103 C 1177.448 301.821 1195.416 314.649 1210.603 331.734 C 1219.881 342.172 1229.263 351.939 1240.678 359.93 C 1244.609 362.681 1247.566 368.004 1251.956 369.955 C 1254.595 371.127 1258.17 370.413 1260.728 371.835 C 1266.369 374.968 1270.679 380.883 1276.392 383.739 C 1292.941 392.014 1310.238 399.404 1329.024 401.283 C 1353.438 403.724 1388.321 405.953 1411.73 398.15 C 1439.401 388.927 1467.566 372.647 1486.918 350.531 C 1489.629 347.433 1493.816 346.611 1496.943 344.266 C 1508.04 335.943 1520.166 319.678 1527.645 307.925 C 1536.348 294.249 1538.303 279.083 1543.309 264.065 C 1546.571 254.278 1551.56 243.692 1552.707 233.364 C 1555.911 204.533 1548.58 174.614 1539.549 147.524 C 1536.851 139.429 1529.248 133.257 1525.765 125.594 C 1518.339 109.256 1512.027 84.276 1496.943 72.963 C 1485.301 64.231 1472.69 52.956 1459.976 46.021 C 1452.659 42.03 1443.292 41.106 1435.54 37.875 C 1426.683 34.185 1414.741 30.158 1406.718 25.344 C 1400.915 21.863 1395.784 15.497 1388.547 14.693 C 1375.389 13.23 1363.345 17.199 1350.953 17.199" style="fill: none; stroke: rgb(255, 255, 255); stroke-width: 7px;"/>
    <path d="M 1304.588 25.971 C 1316.157 27.899 1326.141 27.224 1337.796 27.224 C 1341.136 27.224 1348.482 24.77 1350.953 28.477 C 1356.317 36.522 1342.033 40.522 1337.169 41.008 C 1322.958 42.429 1305.987 43.864 1292.056 40.382 C 1288.061 39.383 1287.851 36.622 1283.911 36.622" style="fill: none; stroke: rgb(255, 255, 255); stroke-width: 7px;"/>
    <path d="M 1235.039 54.793 C 1287.516 60.04 1342.667 73.92 1395.44 67.324 C 1410.276 65.469 1425.745 58.381 1440.552 55.419 C 1445.707 54.388 1451.237 48.527 1455.59 48.527" style="fill: none; stroke: rgb(255, 255, 255); stroke-width: 7px;"/>
    <path d="M 1377.896 18.452 C 1371.005 28.787 1361.999 40.382 1382.282 40.382 C 1385.414 40.382 1388.547 40.382 1391.68 40.382 C 1393.56 40.382 1397.319 38.502 1397.319 40.382 C 1397.319 43.031 1387.264 46.736 1386.041 50.407 C 1384.275 55.706 1392.755 55.344 1396.066 54.793 C 1407.058 52.961 1416.942 39.755 1428.021 39.755" style="fill: none; stroke: rgb(255, 255, 255); stroke-width: 7px;"/>
    <path d="M 1216.242 71.083 C 1232.465 69.731 1248.854 69.206 1265.114 70.457 C 1276.794 71.355 1287.632 76.595 1298.322 80.482 C 1303.512 82.369 1309.85 81.763 1315.239 82.362 C 1334.62 84.515 1354.432 89.643 1374.136 88.001 C 1386.562 86.965 1401.591 86.266 1413.61 82.988 C 1424.11 80.124 1433.345 73.277 1443.685 69.83 C 1451.866 67.103 1458.06 56.046 1466.868 56.046" style="fill: none; stroke: rgb(255, 255, 255); stroke-width: 7px;"/>
    <path d="M 1203.711 82.988 C 1211.154 75.544 1222.114 73.837 1231.906 75.469 C 1235.452 76.06 1242.381 78.505 1240.678 83.615 C 1235.076 100.423 1213.132 95.508 1201.831 101.158" style="fill: none; stroke: rgb(255, 255, 255); stroke-width: 7px;"/>
    <path d="M 1469.374 61.685 C 1472.422 69.305 1464.001 65.46 1463.109 71.71 C 1461.232 84.844 1478.239 79.585 1484.412 75.469 C 1485.387 74.819 1489.513 71.083 1490.051 71.083" style="fill: none; stroke: rgb(255, 255, 255); stroke-width: 7px;"/>
    <path d="M 1495.69 84.241 C 1471.329 84.241 1451.188 99.406 1427.394 101.785 C 1387.229 105.801 1347.482 93.158 1307.72 96.772 C 1290.644 98.325 1273.437 99.604 1256.342 101.158 C 1234.543 103.14 1214.05 111.183 1191.806 111.183" style="fill: none; stroke: rgb(255, 255, 255); stroke-width: 7px;"/>
    <path d="M 1184.287 129.98 C 1204.493 121.898 1241.452 122.928 1262.608 129.98 C 1269.154 132.162 1275.227 136.992 1282.031 138.126 C 1298.604 140.888 1316.445 138.427 1332.783 142.512 C 1346.366 145.907 1356.454 151.776 1371.004 150.657 C 1382.224 149.794 1393.117 145.516 1404.211 143.138 C 1411.991 141.471 1419.899 141.965 1427.394 138.752 C 1441.556 132.683 1454.053 120.219 1468.121 114.943 C 1482.85 109.419 1500.497 109.93 1515.74 109.93" style="fill: none; stroke: rgb(255, 255, 255); stroke-width: 7px;"/>
    <path d="M 1296.442 170.081 C 1281.723 170.081 1265.42 168.507 1254.463 157.549 C 1249.576 152.662 1246.832 144.99 1239.425 143.138 C 1225.064 139.548 1210.166 137.925 1195.565 143.765 C 1192.373 145.042 1184.287 148.799 1184.287 153.163 C 1184.287 156.599 1196.558 156.923 1198.072 156.923 C 1210.881 156.923 1225.151 155.704 1237.545 158.802 C 1248.761 161.606 1253.45 173.782 1261.355 180.106 C 1270.763 187.632 1290.047 190.779 1301.455 193.89 C 1312.679 196.951 1326.963 188.52 1337.169 185.118 C 1342.524 183.333 1351.628 186.974 1356.593 184.492 C 1358.969 183.303 1355.839 176.845 1354.713 175.72 C 1349.96 170.967 1339.652 170.707 1333.41 170.707 C 1318.141 170.707 1302.718 170.081 1287.67 170.081" style="fill: none; stroke: rgb(255, 255, 255); stroke-width: 7px;"/>
    <path d="M 1522.632 129.354 C 1501.908 137.125 1481.921 146.446 1460.602 152.537 C 1452.624 154.816 1443.911 154.341 1436.166 156.923 C 1429.14 159.265 1425.779 165.752 1419.249 168.201 C 1410.866 171.345 1410.059 177.043 1403.585 181.359 C 1400.938 183.123 1395.549 183.755 1393.56 185.745 C 1392.663 186.641 1394.758 190.075 1395.44 190.757 C 1398.838 194.156 1404.537 189.641 1407.971 188.878 C 1416.12 187.067 1424.279 184.979 1431.154 179.479 C 1456.057 159.557 1486.949 173.053 1515.74 169.454 C 1519.682 168.961 1525.18 169.44 1528.898 168.201 C 1532.224 167.092 1538.364 159.429 1540.176 159.429" style="fill: none; stroke: rgb(255, 255, 255); stroke-width: 7px;"/>
    <path d="M 1535.164 175.093 C 1522.479 178.717 1507.966 180.514 1495.69 185.118 C 1486.951 188.395 1480.304 196.277 1471.254 200.156 C 1436.581 215.016 1387.698 218.026 1350.327 212.687 C 1337.93 210.916 1326.792 205.724 1314.613 203.289 C 1284.762 197.318 1254.618 191.039 1225.014 185.118 C 1215.845 183.284 1209.006 177.452 1200.578 173.84 C 1192.993 170.589 1183.147 170.707 1174.889 170.707" style="fill: none; stroke: rgb(255, 255, 255); stroke-width: 7px;"/>
    <path d="M 1174.262 213.314 C 1210.213 213.314 1247.374 211.302 1283.284 214.567 C 1297.547 215.863 1310.042 225.771 1324.638 227.098 C 1347.891 229.212 1371.609 228.978 1394.813 228.978 C 1407.691 228.978 1422.265 230.254 1434.913 227.725 C 1442.545 226.198 1448.583 221.58 1455.59 218.953 C 1463.21 216.095 1471.23 216.142 1478.773 213.314 C 1485.376 210.837 1490.654 205.18 1496.943 202.035 C 1511.614 194.7 1532.513 201.552 1545.188 188.878" style="fill: none; stroke: rgb(255, 255, 255); stroke-width: 7px;"/>
    <path d="M 1167.37 230.857 C 1185.509 229.208 1207.818 226.623 1225.641 231.484 C 1231.957 233.207 1235.5 238.321 1241.305 240.256 C 1247.07 242.178 1252.391 241.407 1258.222 242.136 C 1263.669 242.816 1294.188 238.458 1283.911 252.161 C 1279.812 257.626 1267.231 257.173 1261.355 257.173 C 1251.986 257.173 1241.865 258.728 1232.533 257.173 C 1221.384 255.315 1211.988 247.525 1200.578 245.895 C 1189.82 244.358 1178.125 255.92 1169.25 255.92" style="fill: none; stroke: rgb(255, 255, 255); stroke-width: 7px;"/>
    <path d="M 1537.043 220.206 C 1526.075 221.773 1510.425 222.863 1500.702 227.725 C 1497.43 229.361 1495.807 234.774 1495.063 237.75 C 1493.762 242.953 1480.448 252.598 1475.64 254.04 C 1468.019 256.327 1438.006 252.061 1443.058 264.692 C 1445.66 271.196 1457.38 270.215 1462.482 269.704 C 1482.881 267.664 1505.954 263.826 1520.753 249.028 C 1525.515 244.265 1530.894 244.897 1536.417 242.136 C 1538.013 241.338 1545.675 240.882 1543.309 240.882" style="fill: none; stroke: rgb(255, 255, 255); stroke-width: 7px;"/>
    <path d="M 1167.996 270.958 C 1189.524 270.958 1210.952 267.639 1232.533 269.078 C 1256.987 270.708 1285.214 275.276 1309.6 272.837 C 1327.119 271.085 1346.328 266.855 1364.111 269.078 C 1377.547 270.757 1393.818 269.594 1406.718 273.464 C 1426.665 279.448 1446.403 284.115 1467.495 284.115 C 1490.762 284.115 1513.328 278.476 1536.417 278.476" style="fill: none; stroke: rgb(255, 255, 255); stroke-width: 7px;"/>
    <path d="M 1320.878 285.369 C 1305.456 279.585 1293.269 282.995 1278.272 285.995 C 1269.323 287.785 1259.46 283.909 1250.703 285.369 C 1245.173 286.29 1229.086 285.055 1232.533 295.394 C 1234.117 300.145 1242.45 301.994 1245.691 306.045 C 1256.025 318.963 1271.007 329.228 1287.67 329.228 C 1292.04 329.228 1297.924 330.291 1301.455 327.348 C 1311.986 318.572 1340.309 284.742 1310.227 284.742" style="fill: none; stroke: rgb(255, 255, 255); stroke-width: 7px;"/>
    <path d="M 1295.816 299.153 C 1287.133 294.811 1274.405 294.803 1265.114 297.9 C 1263.995 298.273 1258.025 299.547 1257.595 300.406 C 1256.738 302.121 1265.541 311.271 1267.62 312.311 C 1276.618 316.809 1314.312 317.649 1298.322 301.659 C 1296.072 299.409 1291.529 299.202 1288.924 297.9" style="fill: none; stroke: rgb(255, 255, 255); stroke-width: 7px;"/>
    <path d="M 1170.503 285.995 C 1180.622 285.995 1192.163 284.249 1201.831 287.875 C 1218.353 294.07 1227.086 314.47 1240.052 324.842 C 1245.392 329.115 1254.369 331.494 1260.728 333.614" style="fill: none; stroke: rgb(255, 255, 255); stroke-width: 7px;"/>
    <path d="M 1278.272 338.627 C 1311.141 338.627 1338.876 311.311 1367.244 299.153 C 1376.245 295.295 1389.829 290.261 1399.826 292.261 C 1411.535 294.603 1422.098 300.406 1434.287 300.406 C 1455.292 300.406 1476.558 301.033 1497.57 301.033 C 1504.671 301.033 1511.772 301.033 1518.873 301.033 C 1521.026 301.033 1531.216 300.406 1527.018 300.406" style="fill: none; stroke: rgb(255, 255, 255); stroke-width: 7px;"/>
    <path d="M 1188.047 314.191 C 1192.892 311.768 1191.679 311.921 1195.565 311.058 C 1211.112 307.603 1208.08 323.16 1216.242 328.602 C 1221.229 331.926 1230.72 330.021 1233.159 336.12 C 1235.831 342.799 1230.026 349.702 1230.026 356.17" style="fill: none; stroke: rgb(255, 255, 255); stroke-width: 7px;"/>
    <path d="M 1248.197 364.942 C 1271.664 351.533 1305.744 373.012 1331.53 369.328 C 1341.44 367.912 1349.155 362.098 1358.472 359.303 C 1382.186 352.189 1404.447 339.343 1429.274 333.614 C 1440.8 330.954 1451.688 333.399 1463.109 332.361 C 1467.941 331.922 1477.824 328.754 1482.532 331.108 C 1483.799 331.741 1488.003 333.614 1488.798 333.614" style="fill: none; stroke: rgb(255, 255, 255); stroke-width: 7px;"/>
    <path d="M 1500.076 328.602 C 1491.761 323.405 1482.311 316.838 1471.88 318.576 C 1463.612 319.955 1459.721 325.74 1450.577 324.216 C 1441.85 322.761 1433.317 317.551 1424.888 315.444 C 1414.842 312.932 1403.659 316.682 1394.186 318.576" style="fill: none; stroke: rgb(255, 255, 255); stroke-width: 7px;"/>
    <path d="M 1384.161 324.216 C 1384.003 324.216 1374.062 323.737 1374.763 322.336 C 1379.727 312.407 1399.155 314.191 1408.597 314.191 C 1442.127 314.191 1475.387 314.817 1508.848 314.817" style="fill: none; stroke: rgb(255, 255, 255); stroke-width: 7px;"/>
    <path d="M 1481.279 354.917 C 1476.187 344.733 1463.945 345.571 1454.337 346.772 C 1444.432 348.01 1432.518 346.108 1423.008 349.278 C 1412.415 352.809 1404.965 366.695 1397.319 374.341" style="fill: none; stroke: rgb(255, 255, 255); stroke-width: 7px;"/>
    <path d="M 1384.161 383.113 C 1367.905 385.822 1353.602 385.167 1337.169 383.113 C 1322.224 381.245 1310.322 373.088 1294.563 373.088 C 1289.99 373.088 1265.114 369.731 1265.114 377.474" style="fill: none; stroke: rgb(255, 255, 255); stroke-width: 7px;"/>
  </g>
  <g transform="matrix(1, 0, 0, 1, -381.948486, 0.000079)">
    <path d="M 1763.647 291.671 C 1763.646 273.693 1751.869 257.433 1748.325 239.709 C 1735.548 175.828 1747.713 107.151 1802.285 65.172 C 1819.988 51.555 1839.854 46.453 1860.908 41.19 C 1885.107 35.14 1911.39 26.206 1936.851 31.864 C 1941.279 32.848 1945.39 37.32 1949.508 39.192 C 1968.974 48.04 1987.246 55.964 2004.801 68.503 C 2023.703 82.005 2030.803 94.526 2040.774 114.469 C 2042.967 118.856 2050.767 127.761 2050.767 131.79" style="fill: none; stroke-width: 7px; stroke: rgb(255, 255, 255);"/>
    <path d="M 2068.753 179.754 C 2068.753 190.4 2072.181 206.198 2070.752 219.058 C 2069.474 230.557 2065.223 240.742 2062.092 251.7 C 2053.913 280.323 2041.284 317.093 2015.459 334.972 C 2011.304 337.849 2005.985 338.177 2001.47 340.301 C 1984.806 348.143 1966.116 358.167 1948.176 362.951 C 1931.218 367.473 1911.002 366.642 1893.55 365.616 C 1878.091 364.706 1862.187 366.889 1846.918 363.617 C 1834.653 360.989 1823.784 350.718 1815.608 341.634 C 1811.915 337.531 1802.842 334.972 1804.949 334.972 C 1814.011 323.245 1821.731 321.405 1836.259 318.984 C 1839.242 318.487 1846.612 316.832 1849.583 318.318 C 1852.304 319.678 1849.132 325.646 1854.246 325.646 C 1860.087 325.646 1870.98 320.767 1876.23 318.318 C 1881.397 315.906 1885.117 311.046 1890.219 308.325 C 1910.842 297.326 1933.299 286.744 1952.173 273.018 C 1956.902 269.578 1970.95 254.427 1978.82 258.362 C 1980.761 259.333 1977.895 264.291 1977.488 265.024 C 1975.456 268.681 1959.333 279.79 1966.163 284.343 C 1975.112 290.309 1995.472 275.683 2005.467 273.684 C 2007.384 273.301 2017.081 270.643 2018.79 272.352 C 2020.727 274.288 2010.212 282.239 2008.798 283.01 C 1991.832 292.264 1972.049 297.26 1955.504 306.993 C 1935.378 318.831 1914.057 322.459 1896.881 339.635 C 1893.416 343.1 1887.715 346.338 1884.89 350.294 C 1882.227 354.021 1879.912 363.617 1875.563 363.617" style="fill: none; stroke-width: 7px; stroke: rgb(255, 255, 255);"/>
    <path d="M 1726.341 227.718 C 1715.204 234.806 1706.812 244.329 1696.363 252.367 C 1662.749 278.224 1632.096 301.822 1607.762 336.97 C 1599.305 349.186 1593.107 362.384 1593.107 377.607 C 1593.107 384.737 1594.318 392.929 1603.099 392.929 C 1614.01 392.929 1622.152 384.535 1632.411 381.604 C 1670.255 370.791 1709.56 358.295 1745.66 341.634 C 1768.664 331.016 1795.356 328.019 1818.273 316.985 C 1874.316 290.001 1927.262 256.961 1980.818 225.72 C 1999.812 214.64 2016.479 199.449 2034.112 186.416 C 2049.118 175.325 2065.147 166.955 2080.744 157.104 C 2093.227 149.22 2107.342 144.151 2119.382 135.12 C 2146.554 114.741 2169.852 91.005 2191.995 65.172 C 2200.11 55.705 2202.174 40.019 2200.655 27.867 C 2200.212 24.324 2199.093 16.427 2195.326 14.543 C 2166.329 0.045 2136.136 18.92 2108.723 26.534 C 2088.28 32.213 2066.378 37.113 2046.77 45.187 C 2038.004 48.796 2021.269 63.174 2012.129 63.174" style="fill: none; stroke-width: 7px; stroke: rgb(255, 255, 255);"/>
    <path d="M 1753.654 123.129 C 1778.653 113.755 1801.435 97.432 1826.267 89.155 C 1835.431 86.1 1815.204 103.851 1828.931 102.478 C 1830.275 102.344 1831.647 102.239 1832.928 101.812 C 1835.003 101.12 1837.018 100.219 1838.924 99.147 C 1856.271 89.39 1873.496 80.283 1890.885 70.502 C 1895.806 67.734 1905.503 58.276 1912.203 60.509 C 1920.455 63.26 1902.36 72.5 1914.201 72.5 C 1915.756 72.5 1917.322 72.693 1918.865 72.5 C 1931.854 70.877 1944.899 63.941 1956.17 57.178 C 1961.069 54.239 1969.946 46.52 1975.489 46.52" style="fill: none; stroke-width: 7px; stroke: rgb(255, 255, 255);"/>
    <path d="M 1746.992 223.055 C 1766.485 200.778 1798.568 186.114 1823.602 171.094 C 1829.713 167.427 1837.402 166.785 1842.921 161.767 C 1843.661 161.094 1853.234 153.747 1852.247 151.775 C 1850.666 148.612 1833.876 144.866 1836.925 139.784 C 1843.316 129.133 1856.206 123.906 1866.237 117.8 C 1893.329 101.309 1923.082 88.965 1952.173 76.497 C 1962.163 72.216 1977.974 59.177 1988.146 59.177" style="fill: none; stroke-width: 7px; stroke: rgb(255, 255, 255);"/>
    <path d="M 1763.647 276.349 C 1780.958 259.037 1808.421 248.404 1822.936 229.051 C 1836.9 210.432 1808.077 219.975 1815.608 202.404 C 1817.564 197.839 1826.453 193.012 1830.264 189.746 C 1842.722 179.068 1859.636 172.471 1873.565 163.766 C 1880.704 159.304 1887.281 151.719 1896.215 150.442 C 1915.287 147.718 1885.866 167.097 1900.878 167.097 C 1902.925 167.097 1904.859 166.13 1906.873 165.764 C 1911.377 164.945 1911.083 165.473 1915.534 163.1 C 1921.314 160.017 1926.923 157.207 1932.854 154.439 C 1953.444 144.831 1975.581 130.793 1994.142 117.8 C 1999.371 114.14 2004.135 107.807 2009.464 105.143 C 2011.905 103.922 2006.182 95.298 2005.467 93.152 C 2003.722 87.918 2013.563 81.126 2017.458 79.828 C 2020.123 73.907 2042.325 60.658 2044.771 59.843 C 2071.264 51.012 2097.111 40.188 2125.378 38.525 C 2136.054 37.897 2155.645 41.277 2148.028 56.512 C 2137.879 76.811 2119.226 90.294 2102.728 105.143 C 2058.292 145.136 1999.171 173.243 1946.178 199.739 C 1939.473 203.091 1935.704 208.973 1928.857 212.396 C 1909.792 221.929 1892.487 234.461 1873.565 244.373 C 1861.719 250.577 1848.173 255.256 1836.925 262.359 C 1819.125 273.601 1800.532 284.016 1780.301 290.338 C 1771.147 293.199 1765.066 301.152 1755.652 303.662 C 1740.942 307.585 1727.674 315.32 1713.017 318.984 C 1707.056 320.474 1700.798 319.912 1695.031 322.315 C 1687.228 325.566 1671.633 336.076 1663.055 329.643 C 1652.33 321.599 1663.658 308.388 1670.382 301.663 C 1690.069 281.977 1708.126 256.208 1732.336 242.374" style="fill: none; stroke-width: 7px; stroke: rgb(255, 255, 255);"/>
    <path d="M 2032.78 103.81 C 2011.351 110.239 1989.019 129.585 1973.491 145.113 C 1968.444 150.159 1952.619 157.312 1951.507 165.098 C 1950.467 172.379 1954.885 177.136 1959.501 181.752 C 1960.98 183.232 1966.163 185.236 1966.163 187.748" style="fill: none; stroke-width: 7px; stroke: rgb(255, 255, 255);"/>
    <path d="M 2000.804 213.729 C 2005.685 230.813 2017.833 217.726 2027.451 217.726 C 2035.042 217.726 2024.521 228.001 2037.443 226.386 C 2048.275 225.032 2055.814 213.062 2066.755 213.062" style="fill: none; stroke-width: 7px; stroke: rgb(255, 255, 255);"/>
  </g>
  <g transform="matrix(1.124156, 0, 0, 1.124156, -453.897797, -0.14017)" style="">
    <path d="M 1990.606 311.607 C 1996.961 312.878 1999.659 317.95 2005.134 320.687 C 2009.345 322.792 2015.51 322.023 2020.116 323.865 C 2025.285 325.933 2029.943 329.727 2035.552 331.129 C 2062.882 337.962 2095.168 320.999 2113.641 302.527 C 2119.914 296.254 2125.481 286.11 2129.531 278.011 C 2134.026 269.02 2140.581 263.771 2143.151 253.495 C 2144.631 247.573 2142.066 240.277 2141.335 234.426 C 2140.446 227.319 2142.272 219.588 2140.881 212.634 C 2140.379 210.125 2138.513 207.867 2138.157 205.37 C 2137.3 199.374 2135.576 194.905 2133.617 189.026 C 2132.806 186.592 2129.131 185.049 2127.715 182.216 C 2126.428 179.642 2126.794 175.406 2122.721 175.406" style="fill: none; stroke: rgb(255, 255, 255); stroke-width: 7px;"/>
    <path d="M 1973.354 298.895 C 1963.076 300.363 1954.139 310.684 1951.108 319.779 C 1950.081 322.86 1945.562 329.743 1951.108 331.129 C 1956.036 332.361 1961.112 327.355 1964.728 324.773 C 1974.701 317.65 1984.728 310.098 1994.692 302.981 C 2007.969 293.498 2022.597 281.851 2033.282 269.385 C 2039.67 261.933 2046.402 255.357 2053.258 248.501 C 2055.489 246.27 2056.613 242.481 2059.16 240.783 C 2067.383 235.301 2073.019 228.286 2080.044 221.26 C 2086.234 215.071 2095.306 211.021 2100.928 204.462 C 2114.073 189.128 2129.029 173.681 2138.157 155.43 C 2140.075 151.594 2149.792 140.565 2147.237 135.454 C 2145.782 132.543 2140.02 133.802 2137.703 134.092 C 2131.31 134.891 2111.371 146.232 2111.371 153.16 C 2115.108 155.884 2123.265 143.353 2129.531 145.442 C 2131.379 146.058 2131.813 153.589 2130.893 155.43 C 2125.953 165.308 2118.717 176.578 2111.371 185.394 C 2095.834 204.038 2074.056 216.544 2055.982 232.61 C 2038.373 248.263 2025.578 268.556 2006.95 283.459 C 1995.128 292.916 1985.346 306.088 1970.63 311.607 C 1968.647 312.351 1961.488 315.521 1959.28 314.785 C 1957.157 314.077 1957.654 310.963 1958.826 309.791 C 1963.235 305.381 1967.367 300.129 1971.538 295.263" style="fill: none; stroke: rgb(255, 255, 255); stroke-width: 7px;"/>
    <path d="M 1956.102 207.64 C 1967.572 201.905 1972.992 189.479 1980.618 179.946 C 1987.223 171.689 1997.676 162.672 2006.496 156.792 C 2009.093 155.061 2016.256 153.152 2016.938 157.246 C 2017.899 163.014 2008.965 170.184 2005.588 174.044 C 1994.007 187.279 1983.454 202.535 1971.084 214.904 C 1968.689 217.299 1964.056 223.866 1961.096 225.346 C 1960.226 225.781 1955.194 227.245 1955.194 228.07" style="fill: none; stroke: rgb(255, 255, 255); stroke-width: 7px;"/>
    <path d="M 2046.448 139.994 C 2039.725 144.196 2033.597 151.347 2028.288 157.246 C 2022.991 163.131 2016.434 167.411 2011.49 173.59 C 2008.018 177.93 2005.361 183.125 2002.864 188.118 C 1998.688 196.469 1990.033 203.037 1984.704 210.364 C 1977.952 219.648 1966.7 224.356 1959.734 233.064 C 1958.407 234.722 1953.661 245.266 1957.918 244.415 C 1965.565 242.885 1972.642 234.131 1978.348 229.432 C 2001.275 210.552 2017.814 185.11 2039.638 164.964 C 2045.612 159.45 2051.857 155.41 2058.252 150.436 C 2059.22 149.683 2064.088 145.442 2064.608 145.442" style="fill: none; stroke: rgb(255, 255, 255); stroke-width: 7px;"/>
    <path d="M 1960.642 260.305 C 1976.691 253.172 1988.615 235.3 2000.14 222.622 C 2007.702 214.304 2016.581 206.707 2023.748 198.106 C 2027.196 193.969 2030.749 188.593 2035.552 185.848 C 2039.209 183.759 2054.309 181.489 2051.896 189.934 C 2049.252 199.189 2036.024 206.26 2029.65 212.634 C 2023.709 218.576 2015.806 222.494 2009.22 227.616 C 2000.441 234.445 1994.02 244.705 1987.428 253.495 C 1981.315 261.645 1976.351 265.112 1973.808 275.287 C 1973.4 276.917 1970.63 278.989 1970.63 279.827" style="fill: none; stroke: rgb(255, 255, 255); stroke-width: 7px;"/>
    <path d="M 2099.113 157.246 C 2091.264 171.635 2077.481 183.96 2065.516 194.928 C 2057.753 202.045 2051.463 210.581 2041.908 215.358 C 2033.321 219.652 2025.945 229.959 2019.208 236.696 C 2016.777 239.127 2014.484 246.866 2019.208 248.047 C 2026.905 249.971 2038.426 234.503 2043.724 230.794 C 2057.898 220.873 2066.751 206.14 2077.774 193.112 C 2081.709 188.462 2087.648 186.478 2092.302 182.67 C 2096.401 179.316 2109.032 166.78 2113.641 166.78 C 2109.631 164.337 2109.105 161.337 2105.469 157.7 C 2101.24 153.471 2091.04 148.115 2085.492 145.896 C 2079.068 143.326 2071.032 142.574 2064.154 141.81 C 2057.367 141.056 2050.994 137.335 2044.178 136.362 C 2036.602 135.279 2030.905 138.842 2024.202 141.356 C 2012.214 145.852 1998.71 147.131 1988.336 155.43 C 1984.672 158.361 1981.055 164.454 1977.894 168.142 C 1956.085 193.586 1945.472 234.771 1956.102 266.661 C 1959.321 276.32 1965.823 284.374 1971.992 292.085 C 1974.578 295.318 1976.733 301.619 1981.526 301.619" style="fill: none; stroke: rgb(255, 255, 255); stroke-width: 7px;"/>
    <path d="M 2135.433 201.738 C 2126.199 214.666 2112.19 225.138 2100.475 235.788 C 2093.179 242.421 2087.52 251.04 2080.044 257.581 C 2068.839 267.385 2057.671 276.363 2046.448 286.183 C 2036.418 294.96 2030.175 303.946 2022.386 314.331 C 2021.52 315.486 2016.03 320 2016.03 320.233 C 2016.03 321.602 2023.822 321.463 2025.11 321.141 C 2030.439 319.809 2033.58 314.847 2038.276 312.969 C 2042.371 311.331 2047.787 310.722 2050.988 307.521 C 2057.332 301.177 2065.641 298.151 2071.418 290.723 C 2084.407 274.023 2098.656 255.597 2114.549 241.691 C 2123.107 234.202 2133.531 229.147 2138.611 218.99" style="fill: none; stroke: rgb(255, 255, 255); stroke-width: 7px;"/>
    <path d="M 2139.519 238.966 C 2128.191 255.15 2111.859 266.618 2099.567 281.643 C 2095.343 286.805 2088.057 294.02 2082.769 297.987 C 2081.162 299.192 2074.882 302.177 2075.504 298.441 C 2076.987 289.546 2085.971 282.606 2091.849 276.195 C 2105.907 260.858 2128.828 249.005 2138.157 230.34" style="fill: none; stroke: rgb(255, 255, 255); stroke-width: 7px;"/>
    <path d="M 2063.7 327.951 C 2077.294 312.659 2093.436 299.124 2107.739 284.821 C 2109.255 283.304 2120.732 275.849 2122.267 278.919 C 2125.376 285.139 2115.003 294.119 2115.003 299.349" style="fill: none; stroke: rgb(255, 255, 255); stroke-width: 7px;"/>
  </g>
  <g>
    <path d="M 2119.62 19.974 C 2108.054 16.669 2096.112 22.251 2085.443 25.161 C 2076.66 27.557 2068.68 29.271 2060.42 33.401 C 2054.082 36.569 2049.741 42.097 2044.247 46.217 C 2026.683 59.39 2013.454 79.688 2007.018 101.145 C 2005.033 107.763 2002.961 117.302 2003.966 124.337 C 2004.469 127.859 2005.492 131.761 2005.492 135.322 C 2005.492 145.621 2007.706 155.088 2010.985 164.922 C 2013.151 171.42 2014.188 178.446 2016.172 185.063 C 2016.819 187.216 2019.141 189.168 2020.139 191.166 C 2024.793 200.473 2030.73 207.554 2038.144 214.968 C 2043.118 219.943 2050.33 221.711 2055.843 225.648 C 2058.983 227.891 2063.333 229.889 2066.218 232.362 C 2068.111 233.985 2069.01 235.912 2071.406 236.939 C 2075.893 238.862 2081.367 237.989 2086.053 238.77 C 2089.941 239.418 2092.756 243.128 2096.428 243.652 C 2107.272 245.202 2119.647 245.828 2130.606 244.263 C 2136.034 243.487 2140.343 239.929 2145.558 238.77 C 2154.274 236.833 2162.683 236.406 2170.581 231.141 C 2178.832 225.641 2185.574 218.546 2193.162 212.222 C 2196.618 209.342 2200.429 207.183 2203.233 203.677 C 2206.067 200.133 2206.539 194.903 2209.031 191.166 C 2230.608 158.802 2235.16 116.419 2220.626 80.089 C 2215.376 66.964 2204.303 57.968 2194.688 48.353 C 2188.488 42.153 2183.07 38.237 2175.463 34.011 C 2172.856 32.562 2170.837 29.674 2168.14 28.518 C 2164.009 26.748 2158.772 22.428 2154.408 21.805 C 2140.266 19.785 2126.138 19.363 2111.991 19.363" style="fill: none; stroke-width: 7px; stroke: rgb(255, 255, 255);"/>
    <path d="M 2067.439 31.264 C 2072.016 29.303 2076.832 32.674 2081.476 33.706 C 2085.117 34.515 2087.864 36.627 2091.241 37.978 C 2096.698 40.161 2102.83 39.807 2108.329 41.64 C 2111.788 42.793 2114.69 45.083 2118.094 46.217 C 2127.681 49.412 2139.102 48.419 2148.915 47.438 C 2155.817 46.748 2162.807 49.039 2169.666 48.353 C 2174.041 47.916 2179.086 48.91 2183.397 48.048 C 2185.227 47.682 2187.08 46.522 2188.89 46.522" style="fill: none; stroke-width: 7px; stroke: rgb(255, 255, 255);"/>
    <path d="M 2059.199 34.011 C 2064.085 34.011 2072.049 32.498 2076.593 34.316 C 2079.31 35.403 2081.16 38.199 2083.307 39.809 C 2085.32 41.319 2088.229 42.649 2086.053 45.912 C 2083.761 49.35 2070.308 47.015 2071.406 51.405 C 2071.907 53.412 2075.946 53.623 2077.509 53.846 C 2083.183 54.657 2088.128 53.242 2093.682 52.625 C 2094.491 52.535 2099.001 52.841 2098.564 54.151 C 2096.93 59.055 2089.322 61.636 2084.832 62.085 C 2078.624 62.706 2070.296 63.491 2064.387 60.865 C 2057.297 57.713 2049.368 53.899 2041.195 55.067 C 2039.04 55.374 2038.144 56.697 2038.144 59.034 C 2038.144 64.522 2045.021 66.156 2040.89 72.766 C 2037.799 77.711 2023.191 76.951 2023.191 70.935" style="fill: none; stroke-width: 7px; stroke: rgb(255, 255, 255);"/>
    <path d="M 2015.867 81.005 C 2022.658 83.915 2033.615 87.009 2040.89 87.413 C 2046.658 87.733 2053.164 84.875 2058.894 84.056 C 2063.646 83.377 2068.576 83.585 2073.237 82.225 C 2077.162 81.08 2080.594 78.772 2084.527 77.648 C 2088.892 76.401 2093.655 77.25 2097.954 75.817 C 2108.058 72.449 2117.544 66.34 2127.859 63.306 C 2136.455 60.778 2146.186 57.002 2155.018 55.677 C 2162.456 54.561 2169.58 54.868 2176.989 54.456 C 2182.944 54.125 2190.9 51.1 2196.214 51.1" style="fill: none; stroke-width: 7px; stroke: rgb(255, 255, 255);"/>
    <path d="M 2199.571 61.78 C 2192.35 61.78 2185.149 61.78 2177.905 61.78 C 2175.571 61.78 2171.264 60.981 2169.055 62.085 C 2163.789 64.718 2175.183 72.302 2167.224 74.291 C 2159.508 76.221 2150.922 74.211 2143.117 75.512 C 2141.81 75.73 2134.471 77.038 2137.014 80.089 C 2139.476 83.044 2145.031 82.687 2148.305 82.836 C 2158.155 83.283 2168.074 82.247 2177.905 83.141 C 2186.902 83.959 2179.53 98.277 2191.332 94.737 C 2198.091 92.709 2203.607 89.096 2209.336 85.277 C 2210.862 84.259 2212.017 82.105 2213.608 81.31 C 2215.317 80.455 2218.608 81.92 2216.965 81.92" style="fill: none; stroke-width: 7px; stroke: rgb(255, 255, 255);"/>
    <path d="M 2225.204 97.483 C 2222.1 99.035 2219.232 101.307 2216.049 102.671 C 2208.154 106.054 2192.937 105.451 2184.618 103.891 C 2174.088 101.917 2163.902 95.792 2153.797 92.601 C 2146.992 90.452 2139.231 89.923 2132.131 89.549 C 2119.828 88.902 2106.168 88.541 2093.987 90.465 C 2088.895 91.269 2084.278 93.936 2079.34 95.347 C 2075.127 96.551 2070.7 96.9 2066.523 98.093 C 2055.091 101.36 2044.217 107.215 2032.651 110.3 C 2023.355 112.779 2013.249 111.52 2003.966 111.52" style="fill: none; stroke-width: 7px; stroke: rgb(255, 255, 255);"/>
    <path d="M 2057.368 118.234 C 2051.048 118.234 2045.907 121.896 2039.974 121.896 C 2037.627 121.896 2033.035 119.041 2030.82 120.37 C 2028.554 121.729 2022.893 127.246 2025.022 130.44 C 2025.627 131.348 2028.765 132.673 2029.599 133.186 C 2035.737 136.964 2042.683 139.245 2050.045 138.679 C 2059.241 137.972 2071.979 127.766 2075.983 119.759 C 2077.719 116.287 2079.707 109.568 2075.067 107.248 C 2070.639 105.034 2063.713 108.112 2060.115 110.91 C 2056.687 113.576 2055.688 118.539 2050.96 118.539" style="fill: none; stroke-width: 7px; stroke: rgb(255, 255, 255);"/>
    <path d="M 2006.713 134.407 C 2014.07 139.758 2021.639 138.886 2030.21 140.205 C 2041.343 141.918 2052.684 146.549 2064.082 143.867 C 2072.36 141.919 2081.052 138.31 2087.884 133.186 C 2093.245 129.166 2098.266 123.748 2104.057 120.37 C 2114.363 114.358 2124.25 110.385 2136.098 108.164 C 2140.183 107.398 2145.272 109.205 2149.22 109.995 C 2153.05 110.761 2157.231 110.443 2160.816 112.131 C 2168.715 115.848 2176.962 121.405 2185.533 123.421 C 2192.826 125.137 2199.221 123.394 2205.979 120.98 C 2208.839 119.959 2224.899 118.064 2224.899 113.962" style="fill: none; stroke-width: 7px; stroke: rgb(255, 255, 255);"/>
    <path d="M 2224.288 125.557 C 2218.379 128.512 2214.336 134.806 2208.42 137.764 C 2200.87 141.539 2191.057 141.146 2182.787 140.51 C 2177.361 140.093 2174.236 136.997 2169.666 134.712 C 2164.887 132.323 2159.397 130.833 2154.408 128.914 C 2151.08 127.634 2146.828 125.597 2143.117 126.168 C 2138.072 126.944 2130.852 130.17 2126.333 132.881 C 2122.87 134.959 2122.104 138.144 2118.094 139.289 C 2111.818 141.083 2099.278 139.522 2095.208 146.308 C 2092.94 150.088 2099.544 152.27 2101.921 152.716 C 2107.217 153.709 2113.33 153.021 2118.705 153.021 C 2120.001 153.021 2124.632 152.845 2125.723 153.937 C 2131.285 159.499 2121.493 166.856 2131.521 169.805 C 2141.763 172.817 2152.086 166.06 2159.901 160.65 C 2162.65 158.747 2164.334 155.776 2167.529 154.547 C 2174.348 151.924 2186.917 151.195 2193.773 154.242 C 2196.745 155.563 2198.988 158.183 2202.622 157.904 C 2204.937 157.726 2206.909 155.601 2209.031 154.852 C 2213.93 153.123 2219.61 150.071 2223.068 146.613" style="fill: none; stroke-width: 7px; stroke: rgb(255, 255, 255);"/>
    <path d="M 2012.511 167.669 C 2026.236 163.094 2038.886 158.745 2053.401 157.294 C 2058.101 156.824 2061.997 154.738 2066.828 155.463 C 2070.011 155.94 2072.073 157.874 2075.067 158.819 C 2079.002 160.062 2083.518 159.688 2087.274 161.566 C 2090.443 163.15 2093.35 165.874 2096.733 167.059 C 2115.28 173.55 2133.525 182.872 2153.492 185.368 C 2163.01 186.558 2172.206 183.208 2181.567 182.316 C 2187.146 181.785 2193.204 182.348 2198.655 180.791 C 2203.012 179.546 2210.185 175.958 2213.913 173.162 C 2215.303 172.119 2218.273 168.279 2219.711 168.279" style="fill: none; stroke-width: 7px; stroke: rgb(255, 255, 255);"/>
    <path d="M 2018.003 181.706 C 2023.204 177.546 2028.794 172.801 2034.787 169.805 C 2043.914 165.241 2055.241 166.363 2064.997 166.753 C 2076.278 167.205 2085.083 167.762 2095.208 173.162 C 2105.437 178.617 2111.54 189.46 2122.672 193.912 C 2135.893 199.201 2149.944 189.99 2163.563 195.438 C 2170.521 198.221 2172.466 207.975 2180.651 208.56 C 2185.734 208.923 2193.532 205.46 2191.942 199.1 C 2191.71 198.172 2185.051 192.563 2185.839 191.776 C 2187.165 190.45 2190.857 189.979 2192.552 189.64 C 2198.96 188.358 2205.557 188.419 2212.082 188.419" style="fill: none; stroke-width: 7px; stroke: rgb(255, 255, 255);"/>
    <path d="M 2022.886 195.743 C 2031.527 191.168 2043.131 184.556 2053.096 190.25 C 2061.631 195.127 2066.583 205.705 2076.288 208.56 C 2084.821 211.069 2094.993 209.138 2103.752 209.475 C 2117.026 209.986 2135.032 206.195 2146.779 213.137 C 2148.78 214.319 2160.879 221.932 2156.544 225.648 C 2152.913 228.761 2140.846 230.217 2136.404 229.005 C 2131.94 227.788 2128.699 224.886 2123.892 224.428 C 2118.894 223.952 2113.658 223.817 2108.635 223.817 C 2107.364 223.817 2103.562 223.702 2102.531 224.733 C 2100.147 227.117 2100.87 232.55 2096.428 232.057 C 2093.803 231.765 2090.736 231.49 2088.494 229.921 C 2083.738 226.591 2079.923 218.935 2073.237 218.935 C 2069.297 218.935 2063.264 226.771 2060.725 229.31" style="fill: none; stroke-width: 7px; stroke: rgb(255, 255, 255);"/>
  </g>
  <g>
    <path d="M 213.901 318.216 C 201.887 316.5 188.695 318.589 177.212 321.721 C 169.734 323.76 161.54 323.824 153.842 323.824 C 151.114 323.824 147.817 324.698 145.196 323.824 C 140.679 322.319 137.93 327.224 134.446 328.966 C 132.408 329.985 130.946 331.764 129.538 333.172 C 129.313 333.398 127.352 333.24 127.669 333.873 C 129.807 338.15 133.885 339.201 137.718 341.118 C 138.741 341.629 138.891 343.226 139.353 343.688 C 140.392 344.727 144.456 344.389 145.897 344.389 C 151.294 344.389 157.295 344.597 162.723 345.09 C 168.473 345.613 173.479 348.269 179.081 348.829 C 182.225 349.144 185.56 348.966 188.663 349.53 C 194.608 350.611 201.587 350.933 207.592 350.933 C 208.229 350.933 212.855 351.512 213.434 350.933 C 214.277 350.089 214.083 347.634 214.369 346.492 C 215.97 340.086 216.246 332.995 215.304 326.395 C 214.963 324.008 213.901 321.499 213.901 319.384" style="fill: none; stroke: rgb(255, 255, 255); stroke-width: 6px;"/>
    <path d="M 181.184 320.319 C 180.527 326.232 182.332 332.807 181.184 338.547 C 180.594 341.501 179.315 346.328 179.315 349.063" style="fill: none; stroke: rgb(255, 255, 255); stroke-width: 6px;"/>
    <path d="M 137.016 343.454 C 136.012 343.311 128.543 342.407 127.902 343.688 C 127.655 344.182 129.629 346.255 130.006 346.726 C 132.124 349.374 135.374 349.953 137.951 352.101 C 139.142 353.093 139.917 354.626 141.457 355.139 C 145.29 356.417 151.176 355.84 155.478 355.84 C 162.707 355.84 170.532 357.102 177.679 356.308 C 182.975 355.719 188.675 355.493 193.804 356.775 C 199.569 358.216 208.059 358.492 208.059 351.634" style="fill: none; stroke: rgb(255, 255, 255); stroke-width: 6px;"/>
    <path d="M 174.875 349.998 C 174.875 352.037 174.174 354.293 174.174 356.074" style="fill: none; stroke: rgb(255, 255, 255); stroke-width: 6px;"/>
    <path d="M 139.587 323.824 C 138.134 323.501 130.814 324.166 129.772 323.123 C 128.396 321.747 132.149 319.124 132.81 318.683 C 137.16 315.783 140.076 313.669 145.429 313.074 C 160.357 311.416 176.001 312.841 190.999 312.841 C 192.635 312.841 194.271 312.841 195.907 312.841 C 198.229 312.841 207.522 310.901 209.695 313.074 C 210.392 313.772 209.929 316.287 209.929 317.281" style="fill: none; stroke: rgb(255, 255, 255); stroke-width: 6px;"/>
    <path d="M 176.511 313.074 C 177.564 316.235 176.277 318.592 176.277 321.721" style="fill: none; stroke: rgb(255, 255, 255); stroke-width: 6px;"/>
    <path d="M 182.82 312.841 C 188.034 308.786 193.193 304.85 199.179 301.857 C 199.764 301.564 203.619 298.118 203.619 298.118 C 203.619 298.118 204.736 300.28 204.787 300.689 C 205.052 302.804 204.699 305.301 205.021 307.232 C 205.212 308.38 204.093 311.205 204.787 311.205" style="fill: none; stroke: rgb(255, 255, 255); stroke-width: 6px;"/>
    <path d="M 185.858 356.074 C 188.848 360.06 196.11 364.888 201.048 366.123 C 201.818 366.315 204.399 368.768 204.787 367.992 C 206.614 364.338 204.086 360.662 204.086 357.009" style="fill: none; stroke: rgb(255, 255, 255); stroke-width: 6px;"/>
    <path d="M 212.032 317.047 C 213.708 317.526 215.934 317.246 217.407 317.982 C 219.267 318.912 218.007 325.189 218.342 326.862 C 218.96 329.954 220.445 333.065 220.445 336.21 C 220.445 339.35 219.483 342.458 219.276 345.558 C 219.224 346.338 219.492 348.865 219.043 349.764 C 218.18 351.489 213.969 351.4 212.266 351.4" style="fill: none; stroke: rgb(255, 255, 255); stroke-width: 6px;"/>
    <path d="M 211.097 312.607 C 215.168 311.793 218.342 313.176 218.342 317.748" style="fill: none; stroke: rgb(255, 255, 255); stroke-width: 6px;"/>
    <path d="M 219.276 322.89 C 221.258 322.89 224.271 322.976 225.82 324.525 C 228.034 326.74 227.222 330.292 227.222 332.938 C 227.222 339.82 227.155 344.857 219.276 344.857" style="fill: none; stroke: rgb(255, 255, 255); stroke-width: 6px;"/>
    <path d="M 217.64 350.465 C 217.64 356.913 214.137 356.074 208.293 356.074" style="fill: none; stroke: rgb(255, 255, 255); stroke-width: 6px;"/>
    <path d="M 128.37 322.656 C 123.008 323.252 117.854 322.939 112.479 322.656 C 108.261 322.434 103.876 322.89 99.626 322.89 C 92.276 322.89 82.846 321.593 75.789 323.357 C 73.556 323.915 71.237 323.104 69.012 324.058 C 67.075 324.888 66.006 326.451 64.338 327.563 C 62.346 328.891 57.094 331.734 57.094 334.107 C 57.094 334.31 59.229 335.581 59.43 335.743 C 62.858 338.485 66.05 339.802 70.18 341.351 C 78.541 344.486 86.645 344.783 96.12 343.922 C 105.878 343.035 116.2 344.156 126.033 344.156" style="fill: none; stroke: rgb(255, 255, 255); stroke-width: 6px;"/>
    <path d="M 75.789 323.591 C 76.931 327.778 79.489 331.924 78.36 336.444 C 77.876 338.377 75.834 339.718 74.854 341.351 C 74.518 341.911 74.549 343.059 74.153 343.454" style="fill: none; stroke: rgb(255, 255, 255); stroke-width: 6px;"/>
    <path d="M 116.218 324.058 C 116.218 330.063 116.876 337.465 114.115 342.987" style="fill: none; stroke: rgb(255, 255, 255); stroke-width: 6px;"/>
  </g>
  <g>
    <path d="M 546.655 60.098 C 544.354 57.797 542.264 57.489 539.257 56.286 C 537.285 55.497 536.061 54.033 533.876 53.596 C 527.684 52.358 521.242 57.022 516.837 60.546 C 514.592 62.342 512.063 64.682 511.008 67.496 C 509.183 72.364 510.52 82.091 513.698 86.329 C 514.748 87.728 516.177 88.135 517.286 89.243" style="fill: none; stroke-width: 5px; stroke: rgb(255, 255, 255);"/>
    <path d="M 538.584 73.101 C 541.656 70.029 545.427 65.244 547.328 61.443 C 547.671 60.757 545.681 59.082 545.086 59.201 C 543.169 59.584 538.855 62.069 537.463 63.461 C 529.837 71.086 520.837 77.656 515.94 87.45 C 515.102 89.128 519.841 88.212 520.2 88.122 C 523.444 87.312 525.789 84.655 528.72 83.19 C 529.18 82.96 531.634 81.519 531.634 81.172" style="fill: none; stroke-width: 5px; stroke: rgb(255, 255, 255);"/>
    <path d="M 543.292 77.809 C 540.918 77.809 537.022 76.71 534.997 78.482 C 531.792 81.287 531.012 88.05 537.015 87.45 C 539.468 87.205 545.28 82.233 543.741 79.155 C 543.174 78.02 540.877 78.507 539.93 78.034" style="fill: none; stroke-width: 5px; stroke: rgb(255, 255, 255);"/>
    <path d="M 534.1 79.379 C 532.924 79.043 531.845 78.851 530.737 78.482 C 530.095 78.268 528.72 78.934 528.72 78.258 C 528.72 76.995 533.18 71.52 534.549 72.204 C 536.242 73.051 535.272 76.066 536.342 77.137" style="fill: none; stroke-width: 5px; stroke: rgb(255, 255, 255);"/>
    <path d="M 551.139 82.069 C 549.095 87.793 544.307 96.906 536.791 94.4" style="fill: none; stroke-width: 5px; stroke: rgb(255, 255, 255);"/>
    <path d="M 555.399 83.414 C 553.82 91.311 552.854 98.087 543.517 99.332 C 542.554 99.461 539.188 100.16 538.36 99.332" style="fill: none; stroke-width: 5px; stroke: rgb(255, 255, 255);"/>
    <path d="M 563.022 82.742 C 561.876 89.045 559.831 100.59 552.26 102.919 C 548.541 104.064 544.037 103.592 540.154 103.592" style="fill: none; stroke-width: 5px; stroke: rgb(255, 255, 255);"/>
    <path d="M 509.439 69.066 C 505.69 64.38 502.423 59.349 498.453 54.717 C 495.848 51.678 490.785 49.919 489.037 46.422 C 488.312 44.972 490.216 42.788 491.279 41.938 C 495.246 38.764 498.535 33.601 502.937 31.4 C 504.145 30.796 506.592 35.056 507.421 35.884 C 512.286 40.749 517.953 44.398 522.442 50.009 C 523.263 51.035 526.253 52.695 526.253 54.044" style="fill: none; stroke-width: 5px; stroke: rgb(255, 255, 255);"/>
    <path d="M 486.57 52.475 C 480.317 57.686 476.07 64.993 470.428 70.635 C 469.44 71.623 467.705 72.237 466.841 73.101 C 465.726 74.216 470.154 78.124 470.652 78.706 C 472.181 80.49 475.011 81.669 476.257 83.414 C 478.206 86.142 481.194 90.591 484.328 92.158 C 485.45 92.719 490.014 87.987 490.606 87.226 C 493.373 83.668 497.93 81.246 501.143 78.034 C 502.193 76.984 502.765 75.291 503.834 74.222 C 504.439 73.617 506.124 73.004 506.524 72.204 C 507.431 70.39 505.178 68.078 504.282 66.824 C 501.453 62.863 496.548 59.538 492.624 56.735 C 492.043 56.32 487.916 53.524 487.916 52.923" style="fill: none; stroke-width: 5px; stroke: rgb(255, 255, 255);"/>
    <path d="M 509.214 31.4 C 512.852 24.645 519.413 20.723 524.011 14.81 C 525.124 13.38 527.967 9.776 530.289 10.55 C 533.833 11.731 536.878 17.301 539.93 19.742 C 542.382 21.704 547.363 25.192 548.673 27.813 C 549.268 29.004 544.759 33.202 544.189 33.867 C 541.342 37.188 536.891 38.923 533.876 41.938 C 531.825 43.988 529.574 47.924 526.253 47.094 C 524.37 46.623 523.364 44.649 521.994 43.507 C 517.49 39.754 513.655 35.392 509.663 31.4" style="fill: none; stroke-width: 5px; stroke: rgb(255, 255, 255);"/>
    <path d="M 474.688 68.169 C 476.501 74.213 484.133 80.648 489.261 84.311 C 490.496 85.193 490.213 86.609 491.054 87.45" style="fill: none; stroke-width: 5px; stroke: rgb(255, 255, 255);"/>
    <path d="M 477.603 62.788 C 479.142 66.252 482.567 68.649 485.225 71.308 C 488.712 74.795 492.432 78.515 495.763 81.845" style="fill: none; stroke-width: 5px; stroke: rgb(255, 255, 255);"/>
    <path d="M 481.638 57.632 C 484.577 60.571 488.016 62.831 490.83 65.927 C 492.807 68.102 493.903 70.793 495.987 72.877 C 496.866 73.756 497.699 75.058 498.677 75.792 C 498.966 76.008 501.143 77.342 501.143 77.361" style="fill: none; stroke-width: 5px; stroke: rgb(255, 255, 255);"/>
    <path d="M 471.101 79.155 C 478.363 75.12 483.232 67.255 489.933 62.564 C 491.197 61.68 492.992 58.08 494.642 58.08" style="fill: none; stroke-width: 5px; stroke: rgb(255, 255, 255);"/>
    <path d="M 479.396 85.208 C 484.825 79.779 490.198 73.441 495.987 68.617 C 497.527 67.334 499.061 63.012 501.368 63.012" style="fill: none; stroke-width: 5px; stroke: rgb(255, 255, 255);"/>
    <path d="M 513.25 26.02 C 516.261 28.78 518.837 32.757 521.994 35.212 C 524.018 36.786 526.36 37.671 528.047 39.696 C 529.021 40.864 532.307 41.926 532.307 43.731" style="fill: none; stroke-width: 5px; stroke: rgb(255, 255, 255);"/>
    <path d="M 520.649 20.639 C 525.112 25.102 528.849 30.184 533.204 34.539 C 534.357 35.692 536.521 36.063 537.463 37.005" style="fill: none; stroke-width: 5px; stroke: rgb(255, 255, 255);"/>
    <path d="M 524.011 15.707 C 528.44 17.478 529.618 21.569 532.979 24.45 C 534.164 25.466 535.518 25.537 536.791 26.244 C 539.391 27.689 541.385 30.11 543.965 31.4" style="fill: none; stroke-width: 5px; stroke: rgb(255, 255, 255);"/>
    <path d="M 514.371 36.781 C 518.475 31.765 522.611 26.299 527.15 21.76 C 528.559 20.351 531.51 15.931 533.652 15.931" style="fill: none; stroke-width: 5px; stroke: rgb(255, 255, 255);"/>
    <path d="M 519.976 41.714 C 526.487 37.373 531.155 31.432 536.567 26.02 C 537.53 25.056 539.321 21.312 540.826 21.312" style="fill: none; stroke-width: 5px; stroke: rgb(255, 255, 255);"/>
    <path d="M 510.784 35.436 L 509.887 36.109" style="fill: none; stroke-width: 5px; stroke: rgb(255, 255, 255);"/>
    <path d="M 523.115 46.646 C 522.39 47.081 521.919 47.842 521.321 48.439" style="fill: none; stroke-width: 5px; stroke: rgb(255, 255, 255);"/>
    <path d="M 492.175 54.493 C 492.458 54.14 493.956 52.251 494.417 52.251" style="fill: none; stroke-width: 5px; stroke: rgb(255, 255, 255);"/>
    <path d="M 504.058 67.048 C 504.172 66.848 505.758 63.461 506.076 63.461" style="fill: none; stroke-width: 5px; stroke: rgb(255, 255, 255);"/>
  </g>
  <g>
    <path d="M 798.016 346.329 C 793.56 346.329 791.487 348.053 787.536 349.49 C 783.198 351.067 778.62 351.252 775.06 354.813 C 771.859 358.013 770.914 365.707 775.559 368.287 C 778.589 369.971 782.13 371.826 785.54 372.613 C 787.653 373.1 789.978 372.928 792.027 373.611 C 802.868 377.224 813.099 376.639 824.466 377.27 C 828.944 377.519 833.626 378.779 838.106 378.435 C 842.739 378.078 848.126 378.089 852.579 376.605 C 854.227 376.055 855.624 374.863 857.236 374.276 C 861.087 372.876 864.979 372.099 868.382 369.452 C 873.785 365.249 876.489 357.049 870.212 352.484 C 867.387 350.43 863.817 350.47 860.563 349.656 C 856.419 348.62 851.937 346.496 847.755 346.496" style="fill: none; stroke: rgb(255, 255, 255); stroke-width: 4px;"/>
    <path d="M 794.855 357.641 C 798.317 357.641 802.885 357.878 806.167 358.972 C 807.413 359.387 808.349 360.223 809.66 360.469 C 811.641 360.84 813.38 360.303 815.316 360.303 C 817.2 360.303 818.945 361.146 820.806 361.301 C 825.567 361.698 829.998 361.772 834.779 361.134 C 838.959 360.577 843.011 360.084 847.089 358.972 C 847.449 358.874 851.12 358.293 851.248 357.974 C 851.972 356.163 850.583 353.233 850.083 351.486 C 848.427 345.689 845.151 341.307 839.936 338.178 C 836.523 336.13 833.796 335.479 829.955 334.518 C 827.183 333.825 824.848 332.189 821.804 332.189 C 819.768 332.189 817.816 333.53 815.982 334.186 C 810.952 335.982 806.608 339.826 803.173 343.834 C 800.605 346.829 795.188 352.93 795.188 356.809" style="fill: none; stroke: rgb(255, 255, 255); stroke-width: 4px;"/>
    <path d="M 780.549 363.796 C 781.289 362.069 783.575 357.345 786.205 358.805 C 787.177 359.346 791.959 363.032 790.197 364.794 C 789.87 365.121 787.64 364.794 787.203 364.794 C 784.862 364.794 782.621 363.962 780.383 363.962" style="fill: none; stroke: rgb(255, 255, 255); stroke-width: 4px;"/>
    <path d="M 805.003 370.117 C 805.633 369.361 806.973 367.264 807.997 366.624 C 812.027 364.105 815.311 368.589 816.813 371.781 C 817.05 372.282 816.009 370.958 815.483 370.783 C 814.679 370.515 813.655 370.54 812.821 370.616 C 811.36 370.749 805.335 372.429 805.335 371.614" style="fill: none; stroke: rgb(255, 255, 255); stroke-width: 4px;"/>
    <path d="M 830.454 369.785 C 831.238 368.553 831.779 367.292 833.116 366.624 C 834.525 365.919 836.897 365.342 838.439 365.959 C 843.435 367.957 839.59 372.113 836.11 372.113 C 834.426 372.113 832.786 371.947 831.12 371.947" style="fill: none; stroke: rgb(255, 255, 255); stroke-width: 4px;"/>
    <path d="M 855.074 362.632 C 856.019 361.529 857.015 359.785 858.235 358.972 C 860.097 357.73 862.472 358.217 863.724 359.97 C 863.936 360.267 865.216 361.805 864.722 362.299 C 863.567 363.454 860.57 363.64 859.066 363.962 C 858.028 364.185 856.451 364.984 855.407 364.461" style="fill: none; stroke: rgb(255, 255, 255); stroke-width: 4px;"/>
  </g>
  <path d="M 711.4297768373365 272.5269629078355 C 718.8555447792905 277.47745753332936 728.9800006487187 270.04341280565956 731.2423706054688 262.1253967285156 C 732.189405516306 258.8108912351708 733.2873812799374 255.67162387935247 733.7189331054688 252.2191162109375 C 733.8827583477538 250.9084789437385 733.7189331054688 246.9357706705729 733.7189331054688 248.25660705566406 C 733.7189331054688 252.7028646917667 736.0429554166717 266.22499551140476 740.6533203125 268.06915283203125 C 744.6861479498671 269.6822938259263 748.2293179307281 269.5550842285156 752.5408325195312 269.5550842285156 C 754.5220947265625 269.5550842285156 759.8855830825254 268.1541202866152 758.484619140625 269.5550842285156 C 753.7492715712358 274.29043179790483 740.9857200367186 274.33871689962496 737.681396484375 280.9472961425781 C 735.7649129048554 284.7802239423063 734.6890638818836 290.54247918024413 734.2142333984375 294.8160705566406 C 734.2137088765629 294.82079138278357 733.7189331054688 300.7598571777344 733.7189331054688 300.7598571777344 C 733.7189331054688 300.7598571777344 731.3346326154676 289.70269528174964 731.2423706054688 288.872314453125 C 730.498200871981 282.17460344576256 722.6192677762781 275.0035400390625 715.3922729492188 275.0035400390625" style="fill: none; stroke-width: 5px; stroke: rgb(255, 255, 255);"/>
  <path d="M 33.309 41.42 C 40.734 46.371 50.859 38.937 53.121 31.019 C 54.068 27.704 55.166 24.565 55.598 21.112 C 55.762 19.802 55.598 15.829 55.598 17.15 C 55.598 21.596 57.922 35.118 62.532 36.962 C 66.565 38.575 70.108 38.448 74.42 38.448 C 76.401 38.448 81.764 37.047 80.364 38.448 C 75.628 43.184 62.865 43.232 59.56 49.84 C 57.644 53.673 56.568 59.436 56.093 63.709 C 56.093 63.714 55.598 69.653 55.598 69.653 C 55.598 69.653 53.214 58.596 53.121 57.765 C 52.377 51.068 44.498 43.897 37.271 43.897" style="fill: none; stroke-width: 5px; stroke: rgb(255, 255, 255);"/>
  <path d="M 374.042 304.082 C 378.516 307.065 384.615 302.586 385.978 297.816 C 386.549 295.819 387.21 293.928 387.47 291.848 C 387.569 291.058 387.47 288.666 387.47 289.461 C 387.47 292.14 388.87 300.286 391.648 301.397 C 394.077 302.369 396.212 302.292 398.809 302.292 C 400.003 302.292 403.234 301.448 402.39 302.292 C 399.537 305.145 391.848 305.174 389.857 309.155 C 388.702 311.464 388.055 314.935 387.769 317.51 C 387.768 317.513 387.47 321.091 387.47 321.091 C 387.47 321.091 386.034 314.43 385.978 313.929 C 385.53 309.895 380.783 305.575 376.43 305.575" style="fill: none; stroke-width: 5px; stroke: rgb(255, 255, 255);"/>
  <g>
    <path d="M 1304.115 31.942 C 1300.124 31.942 1297.015 33.977 1293.188 34.673 C 1290.22 35.213 1287.736 36.602 1284.993 37.777 C 1280.228 39.82 1274.19 44.544 1278.04 50.318 C 1278.819 51.487 1280.312 51.472 1281.144 52.305 C 1281.811 52.972 1282.461 54.031 1283.503 54.291 C 1289.027 55.672 1294.361 53.403 1298.527 50.07 C 1299.982 48.905 1301.668 47.97 1302.5 46.096 C 1304.371 41.888 1304.239 36.175 1304.239 31.942" style="fill: none; stroke: rgb(255, 255, 255); stroke-width: 4px;"/>
    <path d="M 1302.749 32.562 C 1299.649 34.817 1295.919 35.895 1292.691 37.777 C 1291.74 38.332 1291.026 39.299 1290.084 39.888 C 1288.418 40.929 1286.035 43.483 1286.483 45.724 C 1287.046 48.538 1288.977 48.504 1290.953 49.821 C 1291.958 50.491 1292.994 51.282 1294.306 51.063 C 1295.516 50.861 1296.654 50.024 1297.782 49.573 C 1298.316 49.359 1301.135 48.765 1301.135 48.083" style="fill: none; stroke: rgb(255, 255, 255); stroke-width: 4px;"/>
    <path d="M 1299.396 38.026 C 1297.987 37.824 1296.161 37.471 1294.802 38.15 C 1292.845 39.128 1290.208 41.158 1290.208 43.613 C 1290.208 46.965 1295.24 49.358 1298.155 48.828 C 1300.948 48.32 1304.585 45.237 1304.239 42.123 C 1303.921 39.263 1299.027 37.569 1296.541 38.398" style="fill: none; stroke: rgb(255, 255, 255); stroke-width: 4px;"/>
    <path d="M 1295.423 40.633 C 1293.307 40.633 1295.614 41.311 1295.92 41.006 C 1296.31 40.616 1295.306 39.76 1294.802 40.012" style="fill: none; stroke: rgb(255, 255, 255); stroke-width: 4px;"/>
    <path d="M 1277.171 44.11 C 1275.638 46.869 1273.425 53.54 1277.916 55.036 C 1279.559 55.584 1282.279 55.036 1284 55.036" style="fill: none; stroke: rgb(255, 255, 255); stroke-width: 4px;"/>
    <path d="M 1274.936 50.69 C 1274.339 51.883 1274.253 52.927 1273.943 54.167 C 1273.529 55.82 1273.592 56.446 1274.315 57.892 C 1277.18 63.621 1285.526 60.618 1290.705 59.754 C 1291.59 59.607 1294.459 60.405 1294.926 60.872 C 1296.704 62.648 1293.809 65.341 1292.691 66.459 C 1292.372 66.779 1291.462 68.819 1291.326 68.819" style="fill: none; stroke: rgb(255, 255, 255); stroke-width: 4px;"/>
    <path d="M 1296.292 58.761 C 1298.539 57.798 1299.895 61.237 1299.272 63.107 C 1299.128 63.54 1297.077 65.506 1297.534 65.963 C 1297.802 66.231 1299.297 65.686 1299.52 65.59 C 1301.132 64.899 1302.528 64.156 1304.239 63.728 C 1304.906 63.561 1306.243 63.941 1306.598 63.231 C 1306.903 62.621 1306.97 61.666 1306.97 60.996 C 1306.97 60.154 1307.099 59.148 1306.846 58.389 C 1306.506 57.367 1304.912 57.564 1304.115 57.644 C 1301.941 57.861 1299.817 58.513 1297.658 58.513" style="fill: none; stroke: rgb(255, 255, 255); stroke-width: 4px;"/>
    <path d="M 1299.024 57.892 C 1298.829 56.333 1298.22 55.449 1297.658 54.043 C 1297.545 53.759 1296.77 52.962 1296.913 52.677 C 1297.163 52.178 1298.239 51.821 1298.651 51.684 C 1299.137 51.522 1299.572 50.338 1299.769 49.946 C 1299.88 49.724 1300.495 49.315 1300.762 49.449 C 1301.268 49.702 1301.394 50.953 1301.755 51.435 C 1302.922 52.991 1303.477 54.886 1304.487 56.402 C 1304.612 56.59 1305.232 57.287 1305.232 57.395" style="fill: none; stroke: rgb(255, 255, 255); stroke-width: 4px;"/>
    <path d="M 1297.285 66.335 C 1296.393 66.973 1296.038 67.583 1295.299 68.322 C 1295.152 68.468 1294.078 68.95 1294.43 69.067 C 1295.187 69.319 1299.147 69.713 1299.893 68.819 C 1300.522 68.064 1302.04 64.473 1302.749 64.473" style="fill: none; stroke: rgb(255, 255, 255); stroke-width: 4px;"/>
    <path d="M 1307.467 32.314 C 1304.994 31.325 1304.744 37.828 1304.984 39.267 C 1305.573 42.805 1307.752 44.726 1309.826 47.214 C 1311.282 48.961 1313.064 50.966 1315.413 51.435 C 1317.229 51.799 1319.925 50.29 1321.373 49.325 C 1323.716 47.763 1323.921 43.121 1322.863 41.006 C 1322.264 39.806 1322.48 38.601 1321.622 37.529 C 1320.16 35.702 1318.3 35.561 1316.407 34.425 C 1313.691 32.795 1310.217 31.693 1306.97 31.693" style="fill: none; stroke: rgb(255, 255, 255); stroke-width: 4px;"/>
    <path d="M 1301.383 49.325 C 1304.565 53.78 1311.495 51.932 1316.283 51.932" style="fill: none; stroke: rgb(255, 255, 255); stroke-width: 4px;"/>
    <path d="M 1315.538 36.66 C 1311.079 36.103 1305.034 40.013 1308.088 45.103 C 1308.951 46.542 1312.438 47.438 1313.923 47.586 C 1319.918 48.186 1321.073 36.66 1314.668 36.66" style="fill: none; stroke: rgb(255, 255, 255); stroke-width: 4px;"/>
    <path d="M 1311.689 39.888 C 1309.748 39.5 1311.374 40.824 1311.813 40.385 C 1312.197 40.001 1312.185 39.019 1311.564 39.019" style="fill: none; stroke: rgb(255, 255, 255); stroke-width: 4px;"/>
    <path d="M 1271.956 74.53 C 1272.011 74.199 1271.655 71.727 1271.956 71.426 C 1273.499 69.882 1277.67 71.426 1279.654 71.178 C 1281.17 70.988 1282.555 70.16 1284.124 69.936 C 1286.142 69.648 1288.024 69.315 1290.084 69.315 C 1290.308 69.315 1291.653 69.146 1291.822 69.315 C 1292.227 69.72 1292.307 70.883 1292.443 71.426 C 1293.193 74.427 1292.567 77.298 1292.567 80.366" style="fill: none; stroke: rgb(255, 255, 255); stroke-width: 4px;"/>
    <path d="M 1267.734 73.413 C 1266.761 75.359 1266.386 77.314 1265.872 79.372 C 1265.787 79.71 1265.23 80.717 1265.251 80.738 C 1267.434 82.919 1269.39 82.938 1272.08 84.091 C 1276.822 86.123 1281.462 86.552 1286.607 87.195 C 1287.878 87.354 1289.495 88.809 1290.456 88.809 C 1290.856 88.809 1291.012 84.665 1291.077 84.339 C 1291.196 83.743 1292.236 81.567 1291.946 80.987 C 1291.395 79.883 1288.89 78.315 1287.601 78.131 C 1285.886 77.886 1284.106 77.88 1282.386 77.634 C 1281.036 77.441 1279.903 76.362 1278.661 75.896 C 1276.621 75.131 1274.236 75.111 1272.328 74.158 C 1270.922 73.454 1269.279 72.419 1267.734 72.419" style="fill: none; stroke: rgb(255, 255, 255); stroke-width: 4px;"/>
    <path d="M 1267.113 76.517 C 1267.755 76.837 1271.037 77.41 1271.335 78.007 C 1271.597 78.531 1269.62 80.746 1268.852 80.49 C 1267.806 80.141 1267.196 78.752 1265.872 78.752" style="fill: none; stroke: rgb(255, 255, 255); stroke-width: 4px;"/>
    <path d="M 1290.456 83.097 C 1289.199 81.631 1288.145 81.575 1286.483 80.862 C 1285.173 80.301 1284.17 79.055 1282.882 78.503 C 1281.375 77.857 1279.696 78.189 1278.164 77.883 C 1277.258 77.701 1276.441 76.553 1275.432 76.889 C 1274.559 77.18 1271.697 81.506 1272.825 82.352 C 1274.998 83.983 1279.088 83.8 1281.641 84.96 C 1284.01 86.037 1287.179 86.822 1289.711 86.822" style="fill: none; stroke: rgb(255, 255, 255); stroke-width: 4px;"/>
    <path d="M 1272.204 84.96 C 1271.984 86.282 1271.832 88.015 1271.832 89.057" style="fill: none; stroke: rgb(255, 255, 255); stroke-width: 4px;"/>
    <path d="M 1283.007 89.306 C 1281.987 88.868 1281.349 87.874 1280.275 87.567 C 1277.392 86.744 1275.524 88.766 1272.825 89.306 C 1271.534 89.564 1268.271 88.768 1267.362 89.678 C 1264.645 92.396 1265.109 97.152 1262.892 100.108 C 1260.419 103.405 1256.533 109.094 1258.049 113.642 C 1258.296 114.38 1259.173 114.684 1259.664 115.256 C 1261.46 117.352 1263.833 118.472 1266.244 119.85 C 1267.472 120.552 1268.946 120.335 1270.218 120.843 C 1271.215 121.242 1271.662 122.083 1272.577 122.582 C 1273.689 123.188 1275.007 123.384 1276.177 123.823 C 1279.339 125.009 1280.93 126.841 1284.621 126.431 C 1286.633 126.207 1288.173 124.962 1289.96 124.196 C 1292.721 123.013 1296.387 123.619 1298.403 120.595 C 1303.539 112.889 1295.91 104.564 1291.574 98.494 C 1290.238 96.624 1288.72 94.648 1287.476 92.782 C 1286.956 92.001 1286.786 90.459 1285.986 89.926 C 1285.148 89.368 1283.929 89.022 1283.007 88.561" style="fill: none; stroke: rgb(255, 255, 255); stroke-width: 4px;"/>
    <path d="M 1268.107 89.43 C 1271.4 89.9 1273.174 94.605 1274.688 97.128 C 1275.449 98.397 1276.578 99.562 1277.295 100.853 C 1277.91 101.96 1278.087 103.385 1278.412 104.578 C 1278.843 106.155 1280.447 107.272 1281.02 108.799 C 1281.824 110.943 1282.488 112.978 1283.503 115.008 C 1284.401 116.804 1285.223 120.508 1284.248 122.458 C 1283.747 123.46 1282.081 125.754 1281.392 125.065" style="fill: none; stroke: rgb(255, 255, 255); stroke-width: 4px;"/>
    <path d="M 1269.721 93.527 C 1269.001 94.247 1268.436 94.774 1268.107 95.762 C 1267.962 96.195 1267.688 96.783 1267.61 97.252 C 1266.765 102.319 1275.239 96.927 1270.466 95.017 C 1269.959 94.814 1269.391 94.893 1268.852 94.893" style="fill: none; stroke: rgb(255, 255, 255); stroke-width: 4px;"/>
    <path d="M 1275.308 102.84 C 1272.053 101.212 1271.887 108.255 1274.812 107.93 C 1279.96 107.358 1275.923 97.512 1273.198 102.964" style="fill: none; stroke: rgb(255, 255, 255); stroke-width: 4px;"/>
    <path d="M 1280.647 112.524 C 1274.273 109.338 1273.81 120.719 1280.027 120.719 C 1284.274 120.719 1282.376 111.904 1278.785 111.904" style="fill: none; stroke: rgb(255, 255, 255); stroke-width: 4px;"/>
    <path d="M 1267.238 102.964 C 1266.497 103.07 1265.292 102.958 1264.63 103.336 C 1262.784 104.391 1262.657 108.767 1262.768 110.538 C 1262.863 112.063 1263.096 114.838 1265.127 115.008 C 1270.47 115.453 1272.05 108.307 1269.1 104.702 C 1268.65 104.152 1265.852 102.612 1265.127 103.336" style="fill: none; stroke: rgb(255, 255, 255); stroke-width: 4px;"/>
    <path d="M 1275.308 92.906 C 1278.055 92.296 1281.612 91.168 1284.248 91.168" style="fill: none; stroke: rgb(255, 255, 255); stroke-width: 4px;"/>
    <path d="M 1277.667 98.866 C 1278.868 98.199 1279.772 98.203 1281.02 97.749 C 1283.531 96.836 1285.808 95.017 1288.594 95.017" style="fill: none; stroke: rgb(255, 255, 255); stroke-width: 4px;"/>
    <path d="M 1281.144 103.833 C 1283.101 103.693 1285.1 103.59 1286.98 102.964 C 1288.336 102.512 1290.625 101.101 1291.946 101.101" style="fill: none; stroke: rgb(255, 255, 255); stroke-width: 4px;"/>
    <path d="M 1284.745 112.276 C 1288.004 111.461 1291.957 109.42 1295.299 109.42" style="fill: none; stroke: rgb(255, 255, 255); stroke-width: 4px;"/>
    <path d="M 1286.235 120.719 C 1288.938 118.241 1291.021 118.545 1294.43 117.863 C 1295.507 117.648 1297.774 116.498 1298.527 116.498" style="fill: none; stroke: rgb(255, 255, 255); stroke-width: 4px;"/>
    <path d="M 1301.383 68.943 C 1306.763 68.943 1312.591 67.438 1317.897 68.322 C 1319.092 68.521 1322.862 68.073 1323.733 68.943 C 1325.285 70.494 1324.353 75.588 1324.353 77.634" style="fill: none; stroke: rgb(255, 255, 255); stroke-width: 4px;"/>
    <path d="M 1291.201 88.064 C 1292.269 88.064 1292.153 88.643 1292.691 89.181 C 1292.962 89.452 1293.966 88.917 1294.181 88.809 C 1295.478 88.161 1296.747 87.601 1298.155 87.319 C 1298.563 87.237 1299.102 87.489 1299.396 87.195 C 1299.694 86.897 1298.618 85.92 1298.527 85.829 C 1296.327 83.629 1295.679 83.718 1292.319 83.718 C 1292.691 82.528 1297.158 83.143 1297.658 83.097 C 1303.533 82.563 1309.074 81.111 1315.041 81.111" style="fill: none; stroke: rgb(255, 255, 255); stroke-width: 4px;"/>
    <path d="M 1293.436 89.181 C 1293.327 89.213 1291.063 89.444 1290.953 89.554 C 1290.287 90.22 1292.451 94.581 1293.685 94.272 C 1294.83 93.986 1295.669 92.907 1296.789 92.534 C 1299.073 91.772 1301.265 91.657 1302.997 89.926 C 1303.252 89.672 1302.773 88.405 1302.749 88.188 C 1302.509 86.028 1302.022 86.45 1300.141 86.45" style="fill: none; stroke: rgb(255, 255, 255); stroke-width: 4px;"/>
    <path d="M 1290.456 92.037 C 1290.35 92.037 1288.852 91.903 1288.718 92.037 C 1288.305 92.451 1290.699 95.215 1290.953 95.638 C 1292.504 98.223 1294.71 101.826 1297.161 103.46 C 1297.808 103.891 1298.208 104.853 1298.9 105.199 C 1299.214 105.356 1299.587 104.635 1299.769 104.454 C 1300.761 103.462 1301.323 103.653 1300.762 101.97 C 1300.325 100.659 1299.779 99.337 1299.396 97.997 C 1299.066 96.842 1298.468 93.841 1297.658 93.031" style="fill: none; stroke: rgb(255, 255, 255); stroke-width: 4px;"/>
    <path d="M 1298.651 92.534 C 1299.213 94.079 1299.719 95.654 1300.39 97.128 C 1300.961 98.385 1301.17 99.806 1301.755 100.977 C 1302.004 101.475 1305.852 100.917 1305.977 100.48 C 1306.901 97.248 1305.977 93.365 1305.977 90.051 C 1305.977 89.36 1306.386 86.841 1305.604 86.45 C 1305.113 86.204 1303.948 86.45 1303.37 86.45" style="fill: none; stroke: rgb(255, 255, 255); stroke-width: 4px;"/>
    <path d="M 1297.906 106.689 C 1304.191 106.689 1312.2 107.552 1318.145 105.323 C 1319.198 104.928 1321.656 104.916 1322.367 104.205 C 1322.974 103.598 1322.615 99.835 1322.615 99.115" style="fill: none; stroke: rgb(255, 255, 255); stroke-width: 4px;"/>
    <path d="M 1292.816 71.55 C 1293.353 71.685 1297.896 70.66 1298.155 71.178 C 1299.199 73.264 1298.192 76.556 1298.403 78.876 C 1298.457 79.47 1299.402 81.099 1299.148 81.607 C 1298.783 82.337 1294.117 82.04 1293.561 81.483" style="fill: none; stroke: rgb(255, 255, 255); stroke-width: 4px;"/>
    <path d="M 1300.141 78.007 C 1299.498 79.723 1299.041 81.46 1301.135 81.111 C 1301.366 81.072 1302.568 81.167 1302.749 80.987 C 1303.012 80.723 1302.708 80.239 1302.749 79.869 C 1302.987 77.724 1303.275 77.883 1300.638 77.883" style="fill: none; stroke: rgb(255, 255, 255); stroke-width: 4px;"/>
    <path d="M 1317.276 71.674 C 1316.312 70.71 1312.956 69.73 1312.682 71.923 C 1312.383 74.315 1313.136 76.426 1313.427 78.752 C 1313.475 79.14 1313.239 79.99 1313.427 80.366 C 1313.739 80.991 1316.344 80.894 1316.903 80.614 C 1317.262 80.435 1317.276 78.969 1317.276 78.627 C 1317.276 77.497 1317.365 76.39 1317.524 75.275 C 1317.737 73.789 1317.4 72.45 1317.4 71.053" style="fill: none; stroke: rgb(255, 255, 255); stroke-width: 4px;"/>
    <path d="M 1318.269 80.366 C 1317.724 79.821 1318.157 78.545 1318.269 77.758 C 1318.612 75.356 1318.518 72.771 1318.518 70.308 C 1319.138 71.153 1322.36 70.543 1322.739 71.302 C 1323.43 72.684 1323.36 76.175 1323.36 77.51" style="fill: none; stroke: rgb(255, 255, 255); stroke-width: 4px;"/>
    <path d="M 1318.766 83.842 C 1319.664 82.045 1323.507 77.097 1326.092 78.131 C 1328.041 78.911 1329.507 84.896 1327.954 86.45 C 1327.678 86.726 1325.841 86.387 1325.595 86.326 C 1323.735 85.861 1321.407 84.091 1319.511 84.091" style="fill: none; stroke: rgb(255, 255, 255); stroke-width: 4px;"/>
    <path d="M 1329.32 83.097 C 1330.792 83.588 1330.635 84.762 1329.568 85.829" style="fill: none; stroke: rgb(255, 255, 255); stroke-width: 4px;"/>
    <path d="M 1321.125 80.614 C 1319.747 80.614 1318.393 81.222 1318.393 82.849" style="fill: none; stroke: rgb(255, 255, 255); stroke-width: 4px;"/>
    <path d="M 1317.4 83.47 C 1317.323 83.457 1315.718 82.945 1315.662 82.973 C 1315.12 83.244 1315.073 86.402 1315.041 86.947 C 1314.877 89.74 1314.661 95.386 1317.4 96.756 C 1318.133 97.122 1318.903 94.833 1319.014 94.521 C 1319.915 91.999 1320.849 87.968 1322.615 86.202" style="fill: none; stroke: rgb(255, 255, 255); stroke-width: 4px;"/>
    <path d="M 1324.229 86.822 C 1323.358 88.192 1322.784 89.757 1322.243 91.292 C 1321.924 92.194 1321.854 93.132 1321.498 94.024 C 1321.144 94.908 1320.929 95.855 1320.628 96.756 C 1320.523 97.072 1319.896 97.389 1320.132 97.625 C 1321.612 99.105 1322.618 97.607 1323.608 96.507 C 1325.432 94.481 1327.716 92.638 1328.947 90.175 C 1329.47 89.128 1331.445 88.656 1332.052 87.443 C 1332.352 86.842 1331.08 86.399 1330.686 86.202" style="fill: none; stroke: rgb(255, 255, 255); stroke-width: 4px;"/>
    <path d="M 1303.494 107.185 C 1304.879 108.569 1308.454 108.858 1310.323 109.793 C 1311.487 110.375 1312.486 111.394 1313.675 111.904 C 1314.963 112.456 1316.376 112.6 1317.648 113.145 C 1320.836 114.511 1323.791 116.176 1326.216 113.145 C 1326.612 112.651 1327.42 112.052 1327.582 111.407 C 1328.898 106.139 1324.911 102.463 1324.105 97.625 C 1325.361 98.011 1326.968 97.749 1327.457 97.749 C 1330.555 97.749 1333.303 96.835 1336.149 95.886" style="fill: none; stroke: rgb(255, 255, 255); stroke-width: 4px;"/>
    <path d="M 1323.857 103.585 C 1324.686 104.967 1325.843 106.597 1325.843 108.303 C 1325.843 110.082 1324.146 112.885 1321.994 111.655 C 1320.357 110.72 1319.387 107.929 1319.387 106.192" style="fill: none; stroke: rgb(255, 255, 255); stroke-width: 4px;"/>
    <path d="M 1330.686 89.678 C 1331.402 91.828 1333.051 93.409 1334.535 94.893 C 1335.787 96.145 1336.631 98.146 1337.266 99.735 C 1338.942 103.922 1341.341 106.734 1339.129 111.159 C 1338.657 112.103 1337.194 112.171 1336.397 112.649 C 1335.337 113.285 1333.834 113.996 1332.548 114.139 C 1330.618 114.353 1328.299 114.635 1326.464 114.635" style="fill: none; stroke: rgb(255, 255, 255); stroke-width: 4px;"/>
    <path d="M 1326.464 105.323 C 1330.403 104.01 1334.346 103.46 1338.508 103.46" style="fill: none; stroke: rgb(255, 255, 255); stroke-width: 4px;"/>
    <path d="M 1329.196 109.544 C 1332.157 109.275 1335.419 108.799 1338.26 108.799" style="fill: none; stroke: rgb(255, 255, 255); stroke-width: 4px;"/>
  </g>
  <path d="M 1882.976 67.551 C 1890.402 72.502 1900.527 65.068 1902.789 57.15 C 1903.736 53.835 1904.834 50.696 1905.266 47.243 C 1905.429 45.933 1905.266 41.96 1905.266 43.281 C 1905.266 47.727 1907.59 61.249 1912.2 63.093 C 1916.233 64.707 1919.776 64.579 1924.087 64.579 C 1926.069 64.579 1931.432 63.178 1930.031 64.579 C 1925.296 69.315 1912.532 69.363 1909.228 75.972 C 1907.312 79.805 1906.236 85.567 1905.761 89.84 C 1905.76 89.845 1905.266 95.784 1905.266 95.784 C 1905.266 95.784 1902.881 84.727 1902.789 83.897 C 1902.045 77.199 1894.166 70.028 1886.939 70.028" style="fill: none; stroke-width: 5px; stroke: rgb(255, 255, 255);"/>
  <g transform="matrix(1, 0, 0, 1, 25.152328, 18.564819)">
    <path d="M 1998.706 271.709 C 1999.686 276.611 2000.089 281.347 2000.089 286.231" style="fill: none; stroke-width: 5px; stroke: rgb(255, 255, 255);"/>
    <path d="M 2005.852 272.17 C 2002.791 275.231 1999.468 277.862 1996.4 280.929 C 1994.841 282.488 1993.662 285.065 1991.79 286.001" style="fill: none; stroke-width: 5px; stroke: rgb(255, 255, 255);"/>
    <path d="M 1992.712 273.322 C 1997.69 276.309 2005.292 279.447 2009.309 283.465" style="fill: none; stroke-width: 5px; stroke: rgb(255, 255, 255);"/>
    <path d="M 2021.988 271.709 C 2022.587 274.106 2023.206 276.382 2023.371 278.855 C 2023.458 280.164 2023.866 281.033 2024.063 282.313 C 2024.214 283.298 2024.063 284.52 2024.063 285.54 C 2024.063 286.001 2024.208 287.36 2024.063 286.923 C 2022.895 283.42 2023.562 277.781 2025.215 274.475 C 2026.645 271.616 2031.153 270.864 2033.514 272.861 C 2037.074 275.874 2038.355 282.954 2038.355 286.923" style="fill: none; stroke-width: 5px; stroke: rgb(255, 255, 255);"/>
    <path d="M 2054.26 272.861 C 2042.489 266.976 2040.145 288.002 2050.342 289.459 C 2057.589 290.494 2059.023 271.709 2051.725 271.709" style="fill: none; stroke-width: 5px; stroke: rgb(255, 255, 255);"/>
    <path d="M 2063.942 260.874 C 2063.942 267.503 2063.599 274.329 2064.173 280.929 C 2064.405 283.605 2064.356 286.108 2066.939 287.614 C 2069.833 289.303 2072.587 287.614 2075.468 287.614" style="fill: none; stroke-width: 5px; stroke: rgb(255, 255, 255);"/>
    <path d="M 2060.715 272.631 C 2063.627 272.307 2069.954 272.852 2072.702 271.478" style="fill: none; stroke-width: 5px; stroke: rgb(255, 255, 255);"/>
    <path d="M 2113.042 261.105 C 2113.119 264.102 2113.215 267.098 2113.273 270.095 C 2113.37 275.133 2113.064 280.641 2114.195 285.54 C 2114.723 287.829 2115.104 290.684 2117.653 291.533 C 2121.277 292.741 2123.383 289.316 2126.412 288.306" style="fill: none; stroke-width: 5px; stroke: rgb(255, 255, 255);"/>
    <path d="M 2111.659 275.628 C 2116.355 274.774 2121.686 272.861 2126.412 272.861" style="fill: none; stroke-width: 5px; stroke: rgb(255, 255, 255);"/>
    <path d="M 2139.321 273.553 C 2134.885 276.88 2133.225 281.806 2135.633 286.923 C 2136.589 288.954 2137.237 292.225 2140.243 292.225 C 2143.415 292.225 2149.462 285.51 2149.234 282.543 C 2148.834 277.356 2141.483 274.014 2137.708 274.014" style="fill: none; stroke-width: 5px; stroke: rgb(255, 255, 255);"/>
    <path d="M 2045.962 318.965 C 2044.588 317.002 2043.527 315.277 2040.89 315.277 C 2039.415 315.277 2034.904 317.983 2035.819 320.117 C 2038.5 326.374 2050.998 324.188 2050.111 333.948 C 2049.338 342.453 2037.894 338.258 2037.894 331.413" style="fill: none; stroke-width: 5px; stroke: rgb(255, 255, 255);"/>
    <path d="M 2063.942 319.426 C 2055.264 310.748 2054.156 328.312 2056.796 334.179 C 2057.318 335.338 2058.291 337.321 2059.793 337.637 C 2061.546 338.006 2065.51 336.456 2067.169 335.793 C 2069.042 335.044 2070.046 333.206 2071.088 331.643" style="fill: none; stroke-width: 5px; stroke: rgb(255, 255, 255);"/>
    <path d="M 2083.767 322.192 C 2083.115 320.726 2082.465 318.097 2081 317.121 C 2079.126 315.871 2076.444 319.818 2075.929 320.809 C 2074.451 323.652 2071.29 335.142 2076.851 336.254 C 2081.745 337.232 2082.945 328.933 2083.767 325.88 C 2084.106 324.621 2084.37 322.82 2084.458 321.501 C 2084.515 320.654 2084.689 318.116 2084.689 318.965 C 2084.689 322.887 2083.914 327.055 2085.38 330.721 C 2085.719 331.569 2087.565 334.847 2089.069 334.179 C 2090.661 333.471 2091.295 331.492 2092.526 330.26" style="fill: none; stroke-width: 5px; stroke: rgb(255, 255, 255);"/>
    <path d="M 2097.598 298.218 C 2098.069 305.296 2097.812 312.348 2098.52 319.426 C 2099.093 325.155 2100.825 333.601 2100.825 338.328" style="fill: none; stroke-width: 5px; stroke: rgb(255, 255, 255);"/>
    <path d="M 2109.354 324.267 C 2112.391 324.267 2115.552 324.338 2118.575 324.036 C 2119.52 323.942 2121.766 324.195 2121.341 323.345 C 2120.172 321.006 2116.26 314.166 2113.042 315.507 C 2110.768 316.455 2109.56 319.433 2108.893 321.501 C 2107.07 327.153 2106.217 334.907 2113.042 337.637 C 2116.277 338.931 2118.697 335.332 2121.802 335.332" style="fill: none; stroke-width: 5px; stroke: rgb(255, 255, 255);"/>
    <path d="M 2154.766 313.893 C 2153.144 310.65 2150.95 313.835 2152.23 315.968 C 2153.236 317.644 2155.552 315.371 2154.074 313.893" style="fill: none; stroke-width: 5px; stroke: rgb(255, 255, 255);"/>
    <path d="M 2170.441 313.663 C 2168.25 312.202 2165.512 314.035 2167.675 316.199 C 2168.734 317.258 2171.763 314.463 2170.902 312.741" style="fill: none; stroke-width: 5px; stroke: rgb(255, 255, 255);"/>
    <path d="M 2145.315 324.958 C 2148.234 334.689 2157.622 341.096 2167.214 335.101 C 2169.841 333.459 2172.279 330.837 2173.899 328.186 C 2174.392 327.379 2174.58 325.66 2175.282 324.958" style="fill: none; stroke-width: 5px; stroke: rgb(255, 255, 255);"/>
  </g>
</svg>